<?xml version="1.0" encoding="UTF-8" standalone="no"?>
<!-- Created with Inkscape (http://www.inkscape.org/) -->

<svg
   version="1.1"
   id="svg2"
   width="755.90533"
   height="755.90533"
   viewBox="182 182 390 390"
   sodipodi:docname="hongik_emblem.ai"
   xmlns:inkscape="http://www.inkscape.org/namespaces/inkscape"
   xmlns:sodipodi="http://sodipodi.sourceforge.net/DTD/sodipodi-0.dtd"
   xmlns="http://www.w3.org/2000/svg"
   xmlns:svg="http://www.w3.org/2000/svg">
  <defs
     id="defs6">
    <clipPath
       clipPathUnits="userSpaceOnUse"
       id="clipPath24">
      <path
         d="M 0,566.929 H 566.929 V 0 H 0 Z"
         id="path22" />
    </clipPath>
  </defs>
  <sodipodi:namedview
     id="namedview4"
     pagecolor="#ffffff"
     bordercolor="#000000"
     borderopacity="0.25"
     inkscape:showpageshadow="2"
     inkscape:pageopacity="0.0"
     inkscape:pagecheckerboard="0"
     inkscape:deskcolor="#d1d1d1" />
  <g
     id="g8"
     inkscape:groupmode="layer"
     inkscape:label="hongik_emblem"
     transform="matrix(1.3333333,0,0,-1.3333333,0,755.90533)">
    <g
       id="g10"
       transform="translate(272.2135,289.523)">
      <path
         d="M 0,0 V 5.921 H -16.185 V 3.75 H -3.513 V 0 Z"
         style="fill:#231916;fill-opacity:1;fill-rule:nonzero;stroke:none"
         id="path12" />
    </g>
    <g
       id="g14"
       transform="translate(292.1482,289.5238)">
      <path
         d="M 0,0 V 16.006 H -3.256 V 10.48 h -1.52 v 5.526 H -8.032 V 3.059 h -5.843 v 10.894 h 4.441 v 2.053 h -7.737 V 0.987 h 9.139 V 0 h 3.256 v 8.309 h 1.52 V 0 Z"
         style="fill:#231916;fill-opacity:1;fill-rule:nonzero;stroke:none"
         id="path16" />
    </g>
    <g
       id="g18">
      <g
         id="g20"
         clip-path="url(#clipPath24)">
        <g
           id="g26"
           transform="translate(260.6671,303.9511)">
          <path
             d="m 0,0 c 1.303,0 2.349,-1.066 2.349,-2.684 0,-1.618 -0.987,-2.724 -2.349,-2.724 -1.361,0 -2.348,1.106 -2.348,2.724 C -2.348,-1.066 -1.323,0 0,0 m 0,-7.342 c 3.257,0 5.823,1.875 5.823,4.638 0,2.764 -2.566,4.638 -5.823,4.638 -3.276,0 -5.822,-1.874 -5.822,-4.638 0,-2.763 2.546,-4.638 5.822,-4.638"
             style="fill:#231916;fill-opacity:1;fill-rule:nonzero;stroke:none"
             id="path28" />
        </g>
        <g
           id="g30"
           transform="translate(311.0965,289.523)">
          <path
             d="M 0,0 V 5.526 H -16.185 V 3.356 H -3.474 L -3.474,0 Z"
             style="fill:#231916;fill-opacity:1;fill-rule:nonzero;stroke:none"
             id="path32" />
        </g>
        <g
           id="g34"
           transform="translate(300.0042,303.0235)">
          <path
             d="m 0,0 c 1.184,0 2.132,-0.987 2.132,-2.507 0,-1.5 -0.888,-2.526 -2.132,-2.526 -1.244,0 -2.132,1.026 -2.132,2.526 C -2.132,-0.987 -1.204,0 0,0 m 0,-6.967 c 3.237,0 5.428,1.836 5.428,4.244 0,1.025 -0.415,1.953 -1.126,2.664 H 6.276 V 1.915 H 1.737 V 3.297 H -1.737 V 1.915 h -4.54 v -1.974 h 1.974 c -0.711,-0.711 -1.125,-1.639 -1.125,-2.664 0,-2.408 2.191,-4.244 5.428,-4.244"
             style="fill:#231916;fill-opacity:1;fill-rule:nonzero;stroke:none"
             id="path36" />
        </g>
        <g
           id="g38"
           transform="translate(330.6369,305.531)">
          <path
             d="m 0,0 h -16.383 v -2.171 h 12.988 v -11.665 h -2.289 v 8.802 h -3.158 v -8.802 h -1.975 v 8.802 h -3.157 v -8.802 h -3 v -2.171 H 1.579 v 2.171 H 0 Z"
             style="fill:#231916;fill-opacity:1;fill-rule:nonzero;stroke:none"
             id="path40" />
        </g>
        <g
           id="g42"
           transform="translate(311.0965,298.3262)">
          <path
             d="M 0,0 H 2.17 V 2.171 H 0 V 7.204 H -3.474 V -2.487 H 0 Z"
             style="fill:#231916;fill-opacity:1;fill-rule:nonzero;stroke:none"
             id="path44" />
        </g>
        <path
           d="m 268.7,296.233 h 3.513 v 9.297 H 268.7 Z"
           style="fill:#231916;fill-opacity:1;fill-rule:nonzero;stroke:none"
           id="path46" />
        <g
           id="g48"
           transform="translate(240.5554,294.7341)">
          <path
             d="m 0,0 c 0.828,0.356 2.091,0.552 3.434,0.552 1.343,0 2.605,-0.196 3.434,-0.552 0.868,-0.376 1.303,-0.907 1.303,-1.539 0,-0.632 -0.415,-1.165 -1.303,-1.54 -0.829,-0.356 -2.091,-0.553 -3.434,-0.553 -1.343,0 -2.606,0.197 -3.434,0.553 -0.889,0.375 -1.303,0.908 -1.303,1.54 0,0.632 0.434,1.163 1.303,1.539 m 0.019,5.783 c -0.513,0.236 -0.73,0.572 -0.73,0.948 0,0.375 0.217,0.71 0.73,0.946 C 0.769,8.032 2.072,8.23 3.434,8.23 4.795,8.23 6.098,8.032 6.849,7.677 7.362,7.441 7.579,7.106 7.579,6.731 7.579,6.355 7.362,6.019 6.849,5.783 6.098,5.408 4.816,5.23 3.434,5.23 2.052,5.23 0.769,5.408 0.019,5.783 m -4.875,-7.599 c 0,-2.23 3.197,-3.79 8.29,-3.79 5.091,0 8.29,1.56 8.29,3.79 0,1.046 -0.712,1.875 -2.014,2.448 h 3.001 V 2.704 H 5.21 v 0.81 c 3.789,0.275 5.921,1.44 5.921,2.94 0,0.731 -0.473,1.322 -1.382,1.776 h 2.763 v 1.974 H 5.21 v 1.382 H 1.657 V 10.204 H -5.645 V 8.23 h 2.763 C -3.791,7.776 -4.264,7.185 -4.264,6.454 c 0,-1.5 2.133,-2.665 5.921,-2.94 V 2.704 H -5.842 V 0.632 h 2.999 C -4.145,0.059 -4.856,-0.77 -4.856,-1.816"
             style="fill:#231916;fill-opacity:1;fill-rule:nonzero;stroke:none"
             id="path50" />
        </g>
        <g
           id="g52"
           transform="translate(318.0631,276.0442)">
          <path
             d="M 0,0 1.963,-2.145 V -42.842 L 0,-40.75 Z m 4.368,-47.287 h -29.899 l -4.333,-3.624 h -9.469 l -4.314,3.607 -0.02,0.017 h -30.181 l 2.039,2.173 h 29.394 l 4.314,-3.605 0.02,-0.017 h 6.965 l 4.334,3.622 h 29.11 z m -1.117,43.735 1.96,-2.141 v -40.611 l -1.96,2.089 z M 7.617,-50.75 h -31.428 l -4.334,-3.623 h -12.908 l -4.314,3.606 -0.02,0.017 h -31.711 l 2.041,2.174 h 30.922 l 4.314,-3.606 0.02,-0.017 h 10.405 l 4.334,3.623 H 5.576 Z M 6.499,-7.101 8.46,-9.242 v -40.525 l -1.961,2.09 z m 4.366,-47.112 h -32.956 l -4.334,-3.624 h -16.348 l -4.314,3.608 -0.02,0.016 h -33.239 l 2.04,2.175 h 32.451 l 4.314,-3.608 0.02,-0.016 h 13.845 l 4.334,3.624 H 8.825 Z m -1.117,43.563 1.96,-2.141 V -53.23 l -1.96,2.09 z m -90.937,-2.141 1.961,2.145 V -51.14 l -1.961,-2.09 z m 3.249,3.555 1.96,2.145 v -40.586 l -1.96,-2.09 z m 3.248,3.554 1.96,2.145 v -40.678 l -1.96,-2.089 z m 3.249,3.554 1.958,2.143 v -40.77 l -1.958,-2.087 z m 2.88,-39.527 h 29.396 l 4.521,-3.774 0.045,-0.038 4.574,3.812 h 29.11 l 2.037,-2.17 h -28.37 l -4.334,-3.623 h -6.03 l -4.314,3.606 -0.02,0.017 h -28.653 z m 0.366,42.325 h 29.03 l 3.922,-3.287 v -40.634 l -3.431,2.869 -0.019,0.016 h -29.502 z m 34.24,-3.287 3.93,3.287 h 28.739 v -41.036 h -29.211 l -3.458,-2.885 z m 3.458,4.575 -4.102,-3.441 -4.074,3.424 -0.02,0.017 h -30.75 l -13.014,-14.228 -0.019,-0.021 v -43.21 h 34.903 l 4.314,-3.607 0.02,-0.017 h 17.285 l 4.334,3.624 h 34.619 v 43.21 L -0.04,1.958 Z"
             style="fill:#231916;fill-opacity:1;fill-rule:nonzero;stroke:none"
             id="path54" />
        </g>
        <g
           id="g56"
           transform="translate(265.7116,323.7744)">
          <path
             d="m 0,0 h -11.095 v 19.972 h 44.382 v -4.438 h 2.219 v 6.657 h -48.82 v -24.41 l 13.314,0 z"
             style="fill:#231916;fill-opacity:1;fill-rule:nonzero;stroke:none"
             id="path58" />
        </g>
        <path
           d="m 265.711,323.776 h 33.287 v 15.533 h -33.287 z"
           style="fill:#231916;fill-opacity:1;fill-rule:nonzero;stroke:none"
           id="path60" />
        <g
           id="g62"
           transform="translate(301.2176,321.555)">
          <path
             d="m 0,0 h -35.506 v -6.657 h 48.82 v 24.41 H 0 Z"
             style="fill:#231916;fill-opacity:1;fill-rule:nonzero;stroke:none"
             id="path64" />
        </g>
        <g
           id="g66"
           transform="translate(363.5285,291.1202)">
          <path
             d="m 0,0 c -1.87,-0.846 -6.614,-1.519 -8.519,1.989 -0.322,0.598 -0.6,1.354 -0.742,2.017 -0.141,0.854 -0.082,1.703 0.163,2.328 0.393,1.005 1.244,1.814 2.277,2.165 0.269,0.092 0.541,0.139 0.808,0.139 1.275,0 2.263,-1.236 2.304,-1.289 l 0.087,-0.111 1.288,1.007 -0.098,0.113 c -2.513,2.906 -4.254,6.908 -4.795,8.421 1.875,0.209 3.671,-0.003 5.343,-0.632 1.395,-0.523 2.676,-1.344 3.702,-2.373 C 1.821,13.771 2.188,13.38 2.532,12.973 3.219,12.115 3.731,11.177 4.053,10.185 5.859,4.632 1.715,0.776 0,0 m -10.455,7.264 c -1.454,3.303 -3.124,5.505 -4.069,6.599 0.443,0.289 0.903,0.576 1.368,0.853 1.384,0.826 2.835,1.423 4.314,1.776 0.426,-1.328 1.34,-3.768 2.941,-6.249 C -6.384,10.26 -6.869,10.188 -7.342,10.028 -8.699,9.566 -9.841,8.545 -10.455,7.264 M -25.854,-8.374 c -0.423,-14.016 7.297,-23.451 12.915,-25.674 2.554,-1.01 5.35,-0.934 7.747,0.195 -1.577,-2.78 -3.64,-6.773 -4.977,-10.717 -0.863,-2.548 -1.631,-5.413 -2.443,-8.446 l -0.229,-0.856 c -1.42,-5.323 -3.189,-11.947 -5.333,-16.306 -5.946,-12.085 -14.5,-20.379 -26.923,-26.102 -10.259,-4.726 -21.661,-7.122 -33.888,-7.122 -5.093,0 -20.589,0 -36.047,7.122 -12.518,5.768 -20.738,13.701 -26.652,25.724 -2.216,4.503 -4.276,11.72 -5.823,17.505 l -0.015,0.057 c -0.81,3.025 -1.575,5.882 -2.436,8.424 -1.337,3.944 -3.4,7.936 -4.978,10.716 2.398,-1.13 5.194,-1.205 7.747,-0.194 5.216,2.064 13.251,10.769 12.608,25.343 -0.552,12.549 -4.227,20.433 -11.565,24.809 -4.185,2.497 -8.684,3.049 -12.666,1.556 -0.153,-0.057 -0.305,-0.118 -0.459,-0.185 2.608,3.68 5.974,8.633 7.842,12.192 2.601,4.953 3.347,8.423 4.983,16.026 l 0.011,0.053 c 0.443,2.055 0.944,4.384 1.567,7.137 0.899,3.976 2.979,6.96 6.019,8.638 l 0.007,-0.014 0.862,0.453 c 0.502,0.224 1.028,0.416 1.564,0.569 2.902,0.826 6.394,0.563 8.961,-0.663 -3.458,-3.483 -8.306,-5.954 -8.513,-6.059 -2.528,-1.279 -4.973,-4.262 -4.255,-8.794 0.93,-5.869 6.929,-6.682 10.328,-6.238 2.241,0.295 5.545,1.74 7.478,4.841 l 0.001,10e-4 c 0.08,0.132 8.058,13.233 16.399,21.009 4.696,4.377 8.358,7.543 10.885,9.413 1.042,-0.577 7.499,-3.974 15.068,-3.974 7.557,0 14.024,3.396 15.068,3.973 2.531,-1.871 6.192,-5.037 10.885,-9.412 6.457,-6.019 12.659,-15.123 15.78,-20.013 2.142,-3.448 4.867,-5.412 8.099,-5.838 3.397,-0.445 9.397,0.369 10.326,6.238 0.72,4.534 -1.744,7.482 -4.288,8.728 -0.049,0.026 -4.972,2.588 -8.479,6.124 2.567,1.229 6.059,1.491 8.961,0.664 0.552,-0.158 1.322,-0.457 1.562,-0.567 0.236,-0.107 0.354,-0.168 0.49,-0.237 l 0.035,-0.019 c 3.229,-1.64 5.43,-4.691 6.365,-8.823 0.648,-2.862 1.186,-5.366 1.579,-7.198 1.636,-7.599 2.382,-11.067 4.982,-16.018 1.866,-3.553 5.233,-8.509 7.842,-12.192 -0.153,0.067 -0.306,0.128 -0.459,0.185 -3.981,1.494 -8.479,0.941 -12.667,-1.556 -7.735,-4.613 -11.508,-12.392 -11.871,-24.478 m 11.689,-16.458 c 0.522,-1.37 1.587,-2.405 2.9,-2.8 0.799,-0.24 1.447,-0.357 2.01,-0.36 -0.787,-1.226 -1.748,-2.987 -2.205,-4.844 -0.325,0.088 -0.616,0.183 -0.886,0.29 -1.562,0.618 -3.287,1.882 -4.867,3.568 0.688,0.704 1.9,2.093 3.048,4.146 m 1.468,3.208 c 0.37,1.25 1.408,2.392 2.71,2.983 1.011,0.457 2.657,0.8 4.763,-0.171 1.573,-0.723 2.727,-1.995 3.337,-3.677 0.728,-2.003 0.61,-4.365 -0.315,-6.317 -1.323,-2.795 -4.462,-4.548 -7.661,-4.311 0.919,3.479 4.337,7.484 4.372,7.524 l 0.101,0.117 -1.335,0.97 -0.083,-0.115 c -1.352,-1.857 -2.365,-1.952 -3.993,-1.464 -1.433,0.431 -2.584,2.141 -1.896,4.461 m -145.229,-7.182 c -0.925,1.952 -1.042,4.313 -0.315,6.317 0.61,1.682 1.764,2.954 3.337,3.677 0.896,0.414 1.788,0.623 2.649,0.623 0.739,0 1.45,-0.152 2.112,-0.452 1.364,-0.618 2.563,-1.885 2.917,-3.081 0.723,-2.437 -0.804,-4.13 -2.118,-4.554 -1.597,-0.513 -2.749,-0.034 -3.977,1.655 l -0.083,0.115 -1.334,-0.971 0.1,-0.117 c 0.143,-0.167 3.463,-4.065 4.374,-7.523 -3.205,-0.24 -6.337,1.516 -7.662,4.311 m 12.159,3.886 c 1.189,-2.166 2.33,-3.497 2.855,-4.055 -1.578,-1.686 -3.305,-2.952 -4.871,-3.571 -0.275,-0.109 -0.566,-0.204 -0.885,-0.29 -0.453,1.838 -1.396,3.576 -2.174,4.793 0.661,-0.053 1.294,0.019 1.969,0.223 1.358,0.408 2.548,1.528 3.106,2.9 m -3.907,32.183 c -0.613,1.282 -1.755,2.303 -3.112,2.765 -0.43,0.145 -0.866,0.218 -1.299,0.218 -0.047,0 -0.094,0 -0.14,-0.002 1.597,2.478 2.513,4.919 2.94,6.248 1.477,-0.353 2.928,-0.95 4.313,-1.776 0.46,-0.274 0.909,-0.554 1.367,-0.853 -0.944,-1.093 -2.614,-3.294 -4.069,-6.6 m -1.169,-3.121 -0.045,-0.245 c -0.131,-0.623 -0.374,-1.264 -0.722,-1.907 -1.903,-3.511 -6.646,-2.837 -8.518,-1.99 -1.714,0.776 -5.859,4.631 -4.053,10.185 0.324,0.993 0.836,1.931 1.522,2.788 0.25,0.308 0.58,0.688 0.68,0.769 l 0.027,0.024 c 1.031,1.034 2.313,1.858 3.708,2.381 1.252,0.471 2.583,0.71 3.957,0.71 0.455,0 0.921,-0.026 1.386,-0.078 -0.543,-1.515 -2.287,-5.521 -4.796,-8.421 l -0.097,-0.113 1.291,-1.008 0.087,0.113 c 0.013,0.017 1.379,1.747 3.109,1.149 1.033,-0.352 1.884,-1.161 2.277,-2.165 0.257,-0.656 0.32,-1.394 0.187,-2.192 m 18.701,52.002 c 1.759,1.114 4.144,2.809 6.111,4.868 0.205,-0.156 0.39,-0.319 0.554,-0.486 1.2,-1.215 2.049,-2.48 2.591,-3.864 -0.926,-0.71 -3.089,-2.482 -5.275,-5.079 -0.077,0.563 -0.243,1.108 -0.497,1.626 -0.738,1.511 -1.967,2.543 -3.484,2.935 m 2.034,-3.645 c 0.912,-1.866 -0.215,-3.807 -0.264,-3.889 l -0.07,-0.118 1.344,-0.858 0.078,0.115 c 2.506,3.733 5.66,6.449 6.623,7.237 0.464,-2.365 0.005,-4.629 -0.454,-6.352 -1.004,-3.777 -4.464,-5.89 -7.255,-6.256 -2.817,-0.372 -7.784,0.238 -8.521,4.887 -0.721,4.55 2.487,6.894 4.17,7.325 l 0.017,0.005 c 0.293,0.073 0.6,0.11 0.912,0.11 0.704,0 2.446,-0.215 3.42,-2.206 m 16.029,24.533 c 4.148,3.143 10.8,10.382 11.661,11.324 0.452,0.165 1.66,0.5 3.697,0.369 2.375,-0.151 4.826,-2.024 5.962,-4.554 0.991,-2.214 -0.06,-4.71 -1.19,-5.389 -0.967,-0.579 -3.91,-2.343 -13.168,-10.973 -5.208,-4.854 -10.194,-11.608 -13.568,-16.603 0.353,2.737 0.179,6.586 -3.643,10.456 -1.36,1.376 -4.392,2.983 -8.461,2.983 -0.099,0 -0.198,0 -0.297,-0.003 7.9,4.506 14.973,9.334 19.007,12.39 M -31.47,53.209 c -0.253,-0.517 -0.42,-1.062 -0.496,-1.625 -2.115,2.516 -4.17,4.233 -5.275,5.078 0.542,1.385 1.39,2.65 2.589,3.864 0.169,0.17 0.355,0.333 0.554,0.486 1.971,-2.061 4.356,-3.756 6.115,-4.869 -1.518,-0.392 -2.748,-1.423 -3.487,-2.934 m 1.712,-4.597 c -0.012,0.02 -1.173,2.025 -0.262,3.887 0.957,1.957 2.863,2.462 4.332,2.096 1.678,-0.421 4.911,-2.765 4.187,-7.33 -0.737,-4.646 -5.704,-5.257 -8.521,-4.887 -1.889,0.247 -4.672,1.458 -6.295,4.052 -0.179,0.317 -0.494,0.925 -0.521,0.977 -0.184,0.41 -0.327,0.812 -0.439,1.227 -0.458,1.724 -0.916,3.989 -0.453,6.352 0.964,-0.788 4.119,-3.506 6.622,-7.237 l 0.078,-0.115 1.342,0.86 z M -67.369,84.17 c 1.135,2.531 3.587,4.404 5.962,4.555 0.312,0.02 0.605,0.029 0.879,0.029 1.549,0 2.497,-0.283 2.818,-0.398 0.862,-0.943 7.516,-8.184 11.661,-11.324 4.038,-3.059 11.114,-7.889 19.01,-12.39 -3.925,0.075 -7.208,-1.41 -8.761,-2.98 -3.783,-3.83 -3.985,-7.608 -3.664,-10.288 -3.387,4.935 -8.382,11.621 -13.547,16.435 -9.26,8.631 -12.201,10.394 -13.167,10.973 -1.131,0.679 -2.182,3.175 -1.191,5.388 M 5.589,10.684 c -0.536,1.647 -1.528,2.989 -2.515,4.189 -5.073,6.906 -8.553,12.136 -10.343,15.545 -2.498,4.759 -3.23,8.161 -4.834,15.612 l -0.039,0.187 c -0.437,2.025 -0.932,4.321 -1.542,7.023 -1.106,4.887 -3.794,8.408 -7.763,10.177 -9.583,5.049 -18.717,11.183 -23.627,14.902 -4.342,3.29 -11.62,11.276 -11.69,11.353 l -0.122,0.092 c -0.163,0.078 -1.676,0.758 -4.623,0.573 -2.948,-0.186 -5.963,-2.45 -7.333,-5.505 -1.366,-3.048 0.174,-6.439 1.833,-7.434 0.129,-0.078 0.296,-0.178 0.511,-0.316 -1.888,-0.929 -7.491,-3.401 -13.566,-3.401 -6.08,0 -11.679,2.471 -13.566,3.4 0.216,0.138 0.382,0.239 0.511,0.317 1.659,0.996 3.198,4.387 1.833,7.434 -1.371,3.055 -4.386,5.319 -7.332,5.505 -2.927,0.19 -4.459,-0.494 -4.647,-0.587 l -0.078,-0.059 -0.021,-0.019 c -0.069,-0.077 -7.393,-8.097 -11.691,-11.353 -4.904,-3.716 -14.031,-9.846 -23.603,-14.891 -3.987,-1.779 -6.679,-5.302 -7.786,-10.188 -0.628,-2.778 -1.148,-5.196 -1.566,-7.138 l -0.015,-0.07 c -1.604,-7.454 -2.336,-10.856 -4.834,-15.614 -2.547,-4.853 -8.059,-12.522 -10.298,-15.578 -1.183,-1.207 -2.068,-2.644 -2.56,-4.156 -2.147,-6.601 2.857,-11.22 4.922,-12.156 2.3,-1.043 8.162,-1.813 10.604,2.692 0.528,0.972 0.991,2.36 1.031,2.543 0.944,4.371 4.077,8.221 4.899,9.173 4.476,-3.329 7.488,-11.426 8.066,-21.704 0.517,-9.182 -2.762,-15.372 -5.652,-18.979 -0.809,0.872 -2.578,3.046 -3.839,6.508 -0.492,1.628 -2.014,3.263 -3.79,4.069 -1.315,0.596 -3.442,1.049 -6.104,-0.174 -1.972,-0.909 -3.418,-2.498 -4.18,-4.593 -0.871,-2.401 -0.731,-5.227 0.374,-7.56 0.187,-0.394 0.414,-0.786 0.675,-1.166 l -0.036,-0.022 0.22,-0.331 c 0.046,-0.07 4.687,-7.133 7.039,-14.073 0.847,-2.5 1.611,-5.355 2.426,-8.402 1.566,-5.849 3.654,-13.156 5.928,-17.779 6.089,-12.378 14.547,-20.543 27.426,-26.477 15.781,-7.27 31.543,-7.27 36.723,-7.27 12.462,0 24.091,2.446 34.564,7.27 12.779,5.887 21.579,14.421 27.696,26.855 2.21,4.491 5.672,17.449 5.672,17.449 0.805,3.011 1.566,5.854 2.413,8.354 2.442,7.207 6.931,13.988 6.975,14.052 0.419,0.605 0.712,1.094 0.924,1.541 1.104,2.333 1.244,5.158 0.373,7.559 -0.763,2.096 -2.208,3.684 -4.181,4.593 -2.657,1.225 -4.786,0.771 -6.104,0.174 -1.704,-0.774 -3.076,-2.29 -3.578,-3.949 -1.239,-3.41 -3.166,-5.703 -4.047,-6.631 -2,2.507 -6.341,9.162 -5.962,19.32 0.381,10.23 3.276,17.614 8.375,21.367 1.04,-1.185 3.425,-4.264 4.984,-9.091 0.145,-0.856 0.462,-1.739 0.943,-2.625 2.44,-4.502 8.304,-3.734 10.605,-2.693 2.065,0.936 7.069,5.555 4.922,12.156"
             style="fill:#231916;fill-opacity:1;fill-rule:nonzero;stroke:none"
             id="path68" />
        </g>
        <g
           id="g70"
           transform="translate(300.2591,258.2749)">
          <path
             d="M 0,0 C 1.775,0.171 4.157,0.42 6.462,0.67 6.54,0.218 6.602,-0.202 6.633,-0.592 l 1.838,0.545 C 8.253,1.884 7.443,4.734 6.384,6.96 L 4.703,6.431 C 5.247,5.232 5.73,3.784 6.088,2.429 4.967,2.336 3.831,2.227 2.772,2.149 3.644,5.372 4.532,9.685 5.045,13.36 L 2.896,13.64 C 2.554,9.997 1.76,5.356 0.903,1.993 L -0.249,1.915 Z"
             style="fill:#231916;fill-opacity:1;fill-rule:nonzero;stroke:none"
             id="path72" />
        </g>
        <g
           id="g74"
           transform="translate(295.0116,268.1782)">
          <path
             d="M 0,0 C -0.171,-1.728 -0.498,-3.877 -0.794,-5.279 L 1.059,-5.59 1.183,-4.92 H 3.41 C 3.223,-7.194 2.974,-8.191 2.678,-8.486 2.491,-8.642 2.351,-8.673 2.087,-8.673 c -0.343,0 -1.075,0.015 -1.807,0.078 0.327,-0.514 0.546,-1.261 0.577,-1.838 0.809,-0.015 1.603,-0.031 2.07,0.031 0.561,0.078 0.935,0.234 1.308,0.639 0.53,0.592 0.81,2.149 1.091,5.761 0.031,0.249 0.046,0.748 0.046,0.748 H 1.448 c 0.078,0.498 0.156,1.012 0.218,1.526 h 3.66 V 3.503 H -0.436 V 1.775 H 3.535 L 3.535,0 Z"
             style="fill:#231916;fill-opacity:1;fill-rule:nonzero;stroke:none"
             id="path76" />
        </g>
        <g
           id="g78"
           transform="translate(298.1878,250.1881)">
          <path
             d="M 0,0 H 6.354 V 1.401 C 7.085,0.56 7.957,-0.203 8.876,-0.779 9.203,-0.343 9.888,0.327 10.324,0.638 8.751,1.432 7.272,2.881 6.525,4.313 H 1.013 V 2.6 H 5.419 C 5.668,2.242 5.948,1.869 6.245,1.526 H 0 Z"
             style="fill:#231916;fill-opacity:1;fill-rule:nonzero;stroke:none"
             id="path80" />
        </g>
        <g
           id="g82"
           transform="translate(298.8888,247.5409)">
          <path
             d="M 0,0 V -0.093 H 4.905 C 5.31,-0.638 5.777,-1.168 6.307,-1.666 h -7.63 C -0.825,-1.152 -0.374,-0.592 0,0 m 5.528,-4.967 h -1.09 v 1.869 h 1.09 z m -2.523,0 H 1.916 v 1.869 h 1.089 z m -2.538,0 h -1.059 v 1.869 h 1.059 z m -4.064,1.479 c 0.452,0.28 0.919,0.607 1.37,0.981 v -2.46 h -2.226 v -1.667 h 13.78 v 1.667 H 7.256 v 2.522 c 0.39,-0.296 0.81,-0.56 1.23,-0.794 0.312,0.452 0.981,1.137 1.418,1.464 -1.667,0.701 -3.193,2.024 -3.925,3.41 L 0,1.635 V 0.514 l -1.526,0.482 c -0.716,-1.261 -2.039,-2.413 -3.441,-3.098 0.405,-0.327 1.074,-1.044 1.37,-1.386"
             style="fill:#231916;fill-opacity:1;fill-rule:nonzero;stroke:none"
             id="path84" />
        </g>
        <g
           id="g86"
           transform="translate(295.6035,249.2536)">
          <path
             d="M 0,0 C 1.339,0.95 2.74,2.507 3.565,4.111 L 1.697,4.656 C 1.028,3.363 -0.172,2.149 -1.448,1.37 -1.028,1.059 -0.312,0.358 0,0"
             style="fill:#231916;fill-opacity:1;fill-rule:nonzero;stroke:none"
             id="path88" />
        </g>
        <g
           id="g90"
           transform="translate(266.6834,271.0278)">
          <path
             d="m 0,0 c 0.016,0.327 0.031,0.638 0.047,0.887 h -2.118 c -0.109,-2.055 0.109,-9.124 -6.104,-12.566 0.623,-0.436 1.23,-0.996 1.557,-1.479 3.286,2.009 4.92,5.014 5.762,7.817 0.872,-2.865 2.615,-6.073 6.134,-7.817 0.296,0.498 0.857,1.137 1.433,1.573 C 0.903,-8.86 0.125,-2.149 0,0"
             style="fill:#231916;fill-opacity:1;fill-rule:nonzero;stroke:none"
             id="path92" />
        </g>
        <path
           d="m 268.179,250.997 h 2.476 v -0.918 h -2.476 z m 0,2.071 h 2.476 v -0.825 h -2.476 z m -1.028,-7.52 h -2.569 v 0.934 h 2.569 z m 0,-2.29 h -2.569 v 0.966 h 2.569 z m -0.732,5.497 h 4.235 v -6.088 c 0,-0.249 -0.093,-0.343 -0.373,-0.343 -0.203,-0.015 -0.779,-0.015 -1.386,0 v 5.528 h -5.996 v -6.742 h 1.682 v 0.794 h 3.862 c 0.187,-0.483 0.358,-1.059 0.405,-1.448 1.339,0 2.242,0.046 2.849,0.358 0.623,0.296 0.826,0.841 0.826,1.837 v 11.756 h -6.104 z"
           style="fill:#231916;fill-opacity:1;fill-rule:nonzero;stroke:none"
           id="path94" />
        <path
           d="m 263.615,252.244 h -2.398 v 0.825 h 2.398 z m 0,-2.134 h -2.398 v 0.887 h 2.398 z m 1.729,4.298 h -5.964 v -13.952 h 1.838 v 8.331 h 4.126 z"
           style="fill:#231916;fill-opacity:1;fill-rule:nonzero;stroke:none"
           id="path96" />
        <g
           id="g98"
           transform="translate(283.4666,178.9965)">
          <path
             d="m 0,0 c -57.714,0 -104.667,46.955 -104.667,104.671 0,57.711 46.953,104.663 104.667,104.663 57.71,0 104.66,-46.952 104.66,-104.663 C 104.66,46.955 57.71,0 0,0 m 106.332,104.671 c 0,58.632 -47.7,106.333 -106.332,106.333 -58.634,0 -106.336,-47.701 -106.336,-106.333 0,-58.634 47.702,-106.337 106.336,-106.337 58.632,0 106.332,47.703 106.332,106.337"
             style="fill:#231916;fill-opacity:1;fill-rule:nonzero;stroke:none"
             id="path100" />
        </g>
        <g
           id="g102"
           transform="translate(283.4666,143.414)">
          <path
             d="m 0,0 c -77.229,0 -140.058,62.827 -140.058,140.052 0,77.227 62.829,140.056 140.058,140.056 77.227,0 140.055,-62.829 140.055,-140.056 C 140.055,62.827 77.227,0 0,0 m 0,281.783 c -78.153,0 -141.734,-63.58 -141.734,-141.731 C -141.734,61.9 -78.153,-1.682 0,-1.682 c 78.15,0 141.73,63.582 141.73,141.734 0,78.151 -63.58,141.731 -141.73,141.731"
             style="fill:#231916;fill-opacity:1;fill-rule:nonzero;stroke:none"
             id="path104" />
        </g>
        <g
           id="g106"
           transform="translate(176.3968,314.3486)">
          <path
             d="m 0,0 -9.213,3.144 3.324,9.741 9.214,-3.145 1.213,3.558 -21.258,7.255 -1.214,-3.557 8.836,-3.016 -3.325,-9.74 -8.836,3.015 -1.194,-3.499 21.259,-7.255 z"
             style="fill:#231916;fill-opacity:1;fill-rule:nonzero;stroke:none"
             id="path108" />
        </g>
        <g
           id="g110"
           transform="translate(170.516,349.0936)">
          <path
             d="m 0,0 c 1.057,1.819 2.626,2.938 4.539,3.235 0.341,0.053 0.691,0.079 1.047,0.079 1.497,0 3.104,-0.463 4.625,-1.347 3.533,-2.053 6.399,-5.812 3.846,-10.206 -1.114,-1.918 -2.701,-3.009 -4.718,-3.242 -1.805,-0.211 -3.912,0.322 -5.931,1.495 -2.057,1.195 -3.465,2.762 -4.075,4.532 C -1.276,-3.685 -1.045,-1.798 0,0 m 1.616,-13.434 c 1.983,-1.152 4.241,-1.844 6.478,-1.844 3.335,0 6.62,1.541 8.858,5.393 1.637,2.816 2.015,5.77 1.093,8.541 C 17.181,1.253 15.166,3.577 12.373,5.2 9.275,7 6.155,7.527 3.348,6.725 0.765,5.986 -1.415,4.194 -2.957,1.541 c -3.15,-5.422 -1.27,-11.58 4.573,-14.975"
             style="fill:#231916;fill-opacity:1;fill-rule:nonzero;stroke:none"
             id="path112" />
        </g>
        <g
           id="g114"
           transform="translate(196.7619,353.4282)">
          <path
             d="M 0,0 -11.889,10.487 6.959,7.89 l 2.296,2.602 -16.847,14.86 -2.405,-2.727 11.915,-10.51 -18.916,2.574 -2.335,-2.648 16.847,-14.86 z"
             style="fill:#231916;fill-opacity:1;fill-rule:nonzero;stroke:none"
             id="path116" />
        </g>
        <g
           id="g118"
           transform="translate(207.9292,369.8049)">
          <path
             d="m 0,0 c 0.678,-0.156 1.356,-0.233 2.033,-0.233 2.11,0 4.192,0.753 6.112,2.226 2.175,1.669 3.555,3.849 3.844,6.005 L 13.39,6.364 15.893,8.284 8.574,17.825 0.491,11.624 2.517,8.981 7.915,13.122 C 9.625,10.056 9.07,6.938 6.415,4.901 2.468,1.873 -1.552,4.217 -3.797,7.143 c -1.465,1.909 -2.27,3.838 -2.331,5.579 -0.067,1.975 0.814,3.679 2.62,5.065 2.555,1.959 5.293,1.915 7.514,-0.121 l 0.28,-0.257 2.859,2.491 -0.34,0.322 C 3.232,23.609 -1.33,23.769 -5.396,20.651 -10.714,16.572 -11.305,10.502 -6.938,4.81 -4.978,2.255 -2.579,0.592 0,0"
             style="fill:#231916;fill-opacity:1;fill-rule:nonzero;stroke:none"
             id="path120" />
        </g>
        <g
           id="g122"
           transform="translate(231.2365,381.9565)">
          <path
             d="m 0,0 -10.95,19.614 -3.255,-1.817 10.95,-19.614 z"
             style="fill:#231916;fill-opacity:1;fill-rule:nonzero;stroke:none"
             id="path124" />
        </g>
        <g
           id="g126"
           transform="translate(238.8203,385.7443)">
          <path
             d="m 0,0 -2.723,6.925 1.752,3.88 11.237,-6.769 4.602,1.809 -14.306,8.35 5.433,12.303 -4.689,-1.844 -5.728,-13.405 -3.798,9.66 -3.442,-1.353 8.221,-20.909 z"
             style="fill:#231916;fill-opacity:1;fill-rule:nonzero;stroke:none"
             id="path128" />
        </g>
        <g
           id="g130"
           transform="translate(263.6081,396.5187)">
          <path
             d="m 0,0 c 1.398,-1.655 3.485,-2.49 6.219,-2.49 0.541,0 1.108,0.033 1.701,0.099 3.786,0.42 6.32,2.318 7.135,5.341 0.405,1.464 0.248,3.318 0.068,4.94 L 13.656,21.121 9.89,20.704 11.313,7.868 C 11.663,4.711 11.633,1.586 7.195,1.095 2.815,0.606 2.138,3.338 1.766,6.686 L 0.33,19.644 -3.437,19.226 -2.05,6.724 C -1.807,4.525 -1.503,1.79 0,0"
             style="fill:#231916;fill-opacity:1;fill-rule:nonzero;stroke:none"
             id="path132" />
        </g>
        <g
           id="g134"
           transform="translate(288.5683,410.9007)">
          <path
             d="M 0,0 9.22,-16.646 12.68,-16.923 14.476,5.471 10.851,5.762 9.58,-10.077 0.301,6.608 -3.218,6.891 -5.015,-15.504 -1.268,-15.805 Z"
             style="fill:#231916;fill-opacity:1;fill-rule:nonzero;stroke:none"
             id="path136" />
        </g>
        <g
           id="g138"
           transform="translate(314.3526,413.9037)">
          <path
             d="m 0,0 -3.639,0.813 -4.9,-21.924 3.639,-0.813 z"
             style="fill:#231916;fill-opacity:1;fill-rule:nonzero;stroke:none"
             id="path140" />
        </g>
        <g
           id="g142"
           transform="translate(322.8996,387.8013)">
          <path
             d="M 0,0 15.622,18.216 11.858,19.589 0.525,5.894 0.482,23.739 -3.338,25.132 -3.056,1.114 Z"
             style="fill:#231916;fill-opacity:1;fill-rule:nonzero;stroke:none"
             id="path144" />
        </g>
        <g
           id="g146"
           transform="translate(346.0357,376.0613)">
          <path
             d="m 0,0 1.702,2.969 -10.706,6.136 3.155,5.505 9.803,-5.618 1.702,2.969 -9.803,5.619 2.85,4.974 L 9.09,16.601 10.853,19.676 -2.769,27.483 -13.941,7.99 Z"
             style="fill:#231916;fill-opacity:1;fill-rule:nonzero;stroke:none"
             id="path148" />
        </g>
        <g
           id="g150"
           transform="translate(363.9685,386.2073)">
          <path
             d="m 0,0 3.086,-2.615 c 2.212,-1.874 3.88,-3.618 1.883,-5.974 -1.562,-1.845 -3.283,-1.798 -5.577,0.147 l -3.81,3.229 z m -12.331,-14.551 5.799,6.843 3.133,-2.654 c 0.478,-0.405 1.747,-1.48 2.104,-2.214 0.652,-1.392 -0.188,-2.646 -1.078,-3.974 -0.142,-0.213 -0.283,-0.423 -0.414,-0.631 -0.836,-1.313 -1.272,-2.167 -1.646,-3.759 l -0.059,-0.253 3.698,-3.134 -0.092,1.031 c -0.133,1.503 0.831,3.078 1.764,4.601 1.149,1.876 2.337,3.816 1.48,5.698 1.98,-0.503 4.071,0.221 5.605,2.031 1.06,1.252 1.615,2.507 1.693,3.833 0.189,2.825 -1.521,4.685 -3.396,6.275 L -0.628,4.978 -15.151,-12.16 Z"
             style="fill:#231916;fill-opacity:1;fill-rule:nonzero;stroke:none"
             id="path152" />
        </g>
        <g
           id="g154"
           transform="translate(376.7719,355.0144)">
          <path
             d="m 0,0 c -0.78,-0.643 -1.664,-0.82 -2.628,-0.527 -0.851,0.259 -1.709,0.874 -2.415,1.731 -2.136,2.59 -2.079,4.755 0.182,7.021 l 0.311,0.312 -2.816,2.614 -0.289,-0.284 c -3.464,-3.393 -3.506,-7.525 -0.118,-11.635 1.382,-1.678 3.076,-2.86 4.768,-3.33 0.563,-0.156 1.123,-0.234 1.673,-0.234 1.401,0 2.743,0.505 3.947,1.497 C 6.491,0.36 4.839,4.232 3.373,7.667 L 3.037,8.46 c -1.219,2.894 -1.435,3.542 -0.224,4.541 0.724,0.595 1.515,0.765 2.351,0.505 0.735,-0.228 1.502,-0.794 2.16,-1.592 C 9.079,9.785 9.049,7.931 7.232,6.077 L 6.93,5.77 9.599,3.215 9.893,3.482 c 0.957,0.87 1.604,1.885 2.038,3.191 0.784,2.336 0.086,4.782 -2.134,7.477 -2.191,2.658 -6.022,4.712 -9.614,1.753 -2.36,-1.947 -2.765,-4.312 -1.31,-7.668 l 1.11,-2.57 C 0.838,3.708 1.807,1.49 0,0"
             style="fill:#231916;fill-opacity:1;fill-rule:nonzero;stroke:none"
             id="path156" />
        </g>
        <g
           id="g158"
           transform="translate(378.3437,341.6489)">
          <path
             d="M 0,0 18.954,12.061 16.953,15.206 -2.001,3.146 Z"
             style="fill:#231916;fill-opacity:1;fill-rule:nonzero;stroke:none"
             id="path160" />
        </g>
        <g
           id="g162"
           transform="translate(399.7873,342.1278)">
          <path
             d="m 0,0 -17.061,-8.313 1.647,-3.379 17.06,8.313 2.816,-5.779 3.131,1.526 L 0.288,7.36 -2.842,5.834 Z"
             style="fill:#231916;fill-opacity:1;fill-rule:nonzero;stroke:none"
             id="path164" />
        </g>
        <g
           id="g166"
           transform="translate(389.1845,318.3373)">
          <path
             d="m 0,0 1.102,-3.529 8.616,2.69 15.377,-4.159 -1.324,4.24 -10.883,2.766 7.374,8.469 L 18.95,14.678 8.619,2.692 Z"
             style="fill:#231916;fill-opacity:1;fill-rule:nonzero;stroke:none"
             id="path168" />
        </g>
        <g
           id="g170"
           transform="translate(167.7458,285.797)">
          <path
             d="m 0,0 0.048,-3.001 c 0.055,-3.353 -0.155,-5.554 -3.427,-5.608 -0.833,-0.02 -2.005,0.189 -2.764,1.227 -0.606,0.85 -0.634,2.541 -0.644,3.178 l -0.067,4.093 z m -10.179,-4.624 c 0.037,-2.29 0.283,-4.875 2.743,-6.582 1.141,-0.783 2.537,-1.195 4.044,-1.195 0.045,0 0.09,10e-4 0.135,10e-4 2.074,0.034 3.793,0.715 4.972,1.97 1.211,1.289 1.832,3.175 1.795,5.452 l -0.143,8.766 -22.263,-0.362 0.061,-3.732 8.583,0.14 z"
             style="fill:#231916;fill-opacity:1;fill-rule:nonzero;stroke:none"
             id="path172" />
        </g>
        <g
           id="g174"
           transform="translate(168.9419,266.8684)">
          <path
             d="m 0,0 0.723,-3.938 c 0.537,-2.924 0.708,-5.205 -2.305,-5.758 -2.348,-0.428 -3.639,0.682 -4.178,3.613 l -0.892,4.862 z m -6.348,-11.447 c 1.203,-1.627 3.259,-2.384 5.571,-1.957 1.599,0.293 2.812,0.907 3.706,1.875 1.919,2.049 1.777,4.549 1.337,6.947 L 2.65,4.219 -19.251,0.2 l 0.663,-3.611 8.742,1.604 0.734,-3.998 c 0.112,-0.61 0.409,-2.231 0.223,-3.017 -0.375,-1.473 -1.805,-1.907 -3.32,-2.366 -0.242,-0.074 -0.482,-0.147 -0.712,-0.222 -1.466,-0.483 -2.338,-0.865 -3.623,-1.85 l -0.207,-0.158 0.869,-4.736 0.583,0.856 c 0.84,1.234 2.567,1.835 4.238,2.417 2.057,0.717 4.184,1.457 4.713,3.434"
             style="fill:#231916;fill-opacity:1;fill-rule:nonzero;stroke:none"
             id="path176" />
        </g>
        <g
           id="g178"
           transform="translate(160.792,236.0721)">
          <path
             d="m 0,0 c -1.808,4.672 1.522,7.875 5.241,9.315 1.271,0.492 2.505,0.739 3.656,0.739 0.838,0 1.634,-0.13 2.369,-0.393 C 13.011,9.036 14.327,7.691 15.07,5.77 15.823,3.827 15.716,1.922 14.763,0.26 13.877,-1.284 12.282,-2.563 10.272,-3.342 6.497,-4.803 1.817,-4.691 0,0 M 18.1,7.105 C 15.856,12.902 9.925,15.261 3.68,12.842 0.858,11.75 -1.404,9.881 -2.689,7.58 -4.154,4.956 -4.287,1.912 -3.072,-1.222 c 1.165,-3.012 3.217,-5.133 5.932,-6.136 1.134,-0.419 2.368,-0.628 3.652,-0.628 1.596,0 3.27,0.322 4.924,0.963 6.41,2.482 9.026,8.028 6.664,14.128"
             style="fill:#231916;fill-opacity:1;fill-rule:nonzero;stroke:none"
             id="path180" />
        </g>
        <g
           id="g182"
           transform="translate(196.438,212.4051)">
          <path
             d="m 0,0 -7.417,-5.528 -6.089,8.17 7.417,5.527 -2.193,2.944 -17.85,-13.303 2.194,-2.943 7.732,5.762 6.089,-8.168 -7.733,-5.764 2.23,-2.992 17.85,13.303 z"
             style="fill:#231916;fill-opacity:1;fill-rule:nonzero;stroke:none"
             id="path184" />
        </g>
        <g
           id="g186"
           transform="translate(200.6587,184.4687)">
          <path
             d="m 0,0 c -2.015,-0.43 -3.875,0.122 -5.541,1.636 -3.707,3.369 -2.163,7.723 0.519,10.675 1.584,1.743 3.393,2.782 5.234,3.004 0.245,0.029 0.49,0.044 0.733,0.044 1.576,0 3.088,-0.621 4.409,-1.822 C 8.812,10.395 7.737,6.103 5.139,3.242 3.578,1.526 1.753,0.373 0,0 m 7.827,0.472 c 4.622,5.086 4.48,11.216 -0.361,15.615 -4.598,4.179 -10.958,3.637 -15.462,-1.319 -2.035,-2.24 -3.222,-4.923 -3.342,-7.556 -0.136,-3.001 1.107,-5.783 3.594,-8.043 2.096,-1.905 4.495,-2.892 6.995,-2.892 0.35,0 0.703,0.019 1.056,0.058 2.696,0.297 5.366,1.767 7.52,4.137"
             style="fill:#231916;fill-opacity:1;fill-rule:nonzero;stroke:none"
             id="path188" />
        </g>
        <g
           id="g190"
           transform="translate(232.3432,183.2653)">
          <path
             d="m 0,0 -13.9,-10.979 2.821,17.499 -3.728,2.193 -11.291,-19.19 3.168,-1.863 0.214,0.372 c 0.055,0.096 4.739,8.227 7.383,12.774 l -2.757,-15.995 2.387,-1.403 12.62,9.972 c -2.675,-4.387 -7.473,-12.374 -7.53,-12.47 l -0.221,-0.367 3.193,-1.879 11.291,19.19 z"
             style="fill:#231916;fill-opacity:1;fill-rule:nonzero;stroke:none"
             id="path192" />
        </g>
        <g
           id="g194"
           transform="translate(239.442,180.1112)">
          <path
             d="M 0,0 -8.426,-20.605 -5,-22.006 3.426,-1.4 Z"
             style="fill:#231916;fill-opacity:1;fill-rule:nonzero;stroke:none"
             id="path196" />
        </g>
        <g
           id="g198"
           transform="translate(255.8676,158.2894)">
          <path
             d="m 0,0 -6.046,17.668 -0.074,0.215 -3.388,0.893 -5.676,-21.526 3.608,-0.951 4.002,15.177 6.07,-17.834 3.329,-0.878 5.677,21.527 -3.491,0.92 z"
             style="fill:#231916;fill-opacity:1;fill-rule:nonzero;stroke:none"
             id="path200" />
        </g>
        <g
           id="g202"
           transform="translate(278.5226,158.3421)">
          <path
             d="m 0,0 c -0.108,-1.405 -0.286,-3.002 -1.028,-4.17 -0.81,-1.275 -2.195,-1.818 -4.227,-1.662 -4.362,0.336 -4.505,3.116 -4.249,6.441 l 0.992,12.884 -3.752,0.289 -0.956,-12.43 c -0.169,-2.186 -0.378,-4.907 0.756,-6.928 1.266,-2.242 3.713,-3.517 7.272,-3.791 0.328,-0.025 0.649,-0.038 0.962,-0.038 3.283,0 5.74,1.374 6.973,3.924 0.666,1.353 0.855,3.187 0.979,4.799 l 1.012,13.156 -3.752,0.289 z"
             style="fill:#231916;fill-opacity:1;fill-rule:nonzero;stroke:none"
             id="path204" />
        </g>
        <g
           id="g206"
           transform="translate(303.325,172.6985)">
          <path
             d="m 0,0 -4.408,-17.153 -8.354,15.628 -4.295,-0.512 2.642,-22.105 3.649,0.436 -0.055,0.425 c -0.014,0.111 -1.213,9.416 -1.864,14.634 l 7.494,-14.393 2.749,0.329 4,15.576 c 0.529,-5.11 1.55,-14.368 1.562,-14.479 l 0.047,-0.426 3.679,0.438 -2.642,22.105 z"
             style="fill:#231916;fill-opacity:1;fill-rule:nonzero;stroke:none"
             id="path208" />
        </g>
        <g
           id="g210"
           transform="translate(331.9176,161.5115)">
          <path
             d="m 0,0 -3.204,-1.298 -2.504,6.185 3.963,1.605 C 0.446,7.379 2.879,8.086 4.034,5.233 5.189,2.38 2.557,1.036 0,0 m -9.055,13.152 3.991,1.617 c 0.883,0.358 2.018,0.755 2.964,0.653 0.918,-0.099 1.55,-0.646 1.986,-1.724 C 0.281,12.722 0.16,11.828 -0.472,11.04 -0.986,10.4 -2.923,9.615 -3.559,9.358 L -6.96,7.98 Z M 2.576,10.186 c 1.159,1.404 1.369,3.27 0.554,5.283 -0.883,2.179 -2.366,3.353 -4.409,3.491 -1.698,0.112 -3.464,-0.493 -4.97,-1.103 l -7.506,-3.039 8.356,-20.638 6.973,2.824 c 2.524,1.022 8.435,3.415 5.964,9.517 -0.945,2.335 -2.718,3.625 -4.962,3.665"
             style="fill:#231916;fill-opacity:1;fill-rule:nonzero;stroke:none"
             id="path212" />
        </g>
        <g
           id="g214"
           transform="translate(348.3451,169.4237)">
          <path
             d="M 0,0 -3.26,5.365 6.303,11.178 4.538,14.081 -5.025,8.268 -7.97,13.114 2.163,19.273 0.335,22.28 -12.961,14.199 -1.398,-4.826 12.209,3.445 10.444,6.349 Z"
             style="fill:#231916;fill-opacity:1;fill-rule:nonzero;stroke:none"
             id="path216" />
        </g>
        <g
           id="g218"
           transform="translate(361.1187,202.2591)">
          <path
             d="m 0,0 10.351,-11.845 -18.241,4.95 -2.639,-2.305 14.65,-16.764 2.81,2.455 -10.329,11.82 18.173,-4.965 2.593,2.266 -14.65,16.764 z"
             style="fill:#231916;fill-opacity:1;fill-rule:nonzero;stroke:none"
             id="path220" />
        </g>
        <g
           id="g222"
           transform="translate(383.0025,198.0697)">
          <path
             d="m 0,0 -4.87,3.961 7.061,8.682 -2.636,2.144 -7.061,-8.683 -4.4,3.578 7.482,9.2 -2.73,2.221 L -16.971,9.032 0.301,-5.015 10.347,7.339 7.711,9.483 Z"
             style="fill:#231916;fill-opacity:1;fill-rule:nonzero;stroke:none"
             id="path224" />
        </g>
        <g
           id="g226"
           transform="translate(394.9788,226.9709)">
          <path
             d="m 0,0 -2.908,1.699 -4.989,-8.536 -4.895,2.861 5.463,9.349 -3.013,1.759 -7.346,-12.57 19.222,-11.233 1.883,3.222 -8.405,4.913 z"
             style="fill:#231916;fill-opacity:1;fill-rule:nonzero;stroke:none"
             id="path228" />
        </g>
        <g
           id="g230"
           transform="translate(385.6706,236.9713)">
          <path
             d="M 0,0 20.409,-8.903 21.889,-5.51 1.48,3.393 Z"
             style="fill:#231916;fill-opacity:1;fill-rule:nonzero;stroke:none"
             id="path232" />
        </g>
        <g
           id="g234"
           transform="translate(408.5005,257.5192)">
          <path
             d="M 0,0 -0.404,0.202 -1.84,-3.16 -1.531,-3.353 c 2.62,-1.641 3.703,-4.258 2.897,-7.001 -1.324,-4.506 -5.719,-4.957 -9.391,-3.878 -1.843,0.542 -7.726,2.754 -6.043,8.478 0.817,2.779 2.967,4.182 6.031,3.959 l 0.376,-0.028 0.708,3.65 -0.44,0.065 c -4.783,0.7 -8.504,-1.819 -9.953,-6.745 -0.931,-3.168 -0.571,-6.074 1.041,-8.405 1.47,-2.125 3.944,-3.748 7.155,-4.692 1.544,-0.454 3,-0.676 4.351,-0.676 4.568,0 7.928,2.54 9.313,7.251 C 5.954,-6.477 4.224,-2.118 0,0"
             style="fill:#231916;fill-opacity:1;fill-rule:nonzero;stroke:none"
             id="path236" />
        </g>
        <g
           id="g238"
           transform="translate(394.0172,263.8335)">
          <path
             d="M 0,0 21.99,-3.498 22.571,0.158 0.582,3.656 Z"
             style="fill:#231916;fill-opacity:1;fill-rule:nonzero;stroke:none"
             id="path240" />
        </g>
        <g
           id="g242"
           transform="translate(414.8921,280.0615)">
          <path
             d="m 0,0 c -0.054,-2.196 -0.912,-3.898 -2.552,-5.062 -1.467,-1.041 -3.544,-1.581 -5.862,-1.527 -2.354,0.058 -4.323,0.747 -5.695,1.993 -1.371,1.246 -2.07,2.993 -2.019,5.052 0.051,2.082 0.88,3.801 2.398,4.97 1.351,1.039 3.208,1.604 5.254,1.604 0.092,0 0.183,-0.001 0.275,-0.003 C -4.156,6.928 0.123,5.03 0,0 m -8.268,10.878 c -6.644,0 -11.013,-4.082 -11.17,-10.492 -0.078,-3.17 1.004,-5.886 3.129,-7.852 1.993,-1.844 4.828,-2.902 7.982,-2.979 0.119,-0.003 0.238,-0.005 0.356,-0.005 5.544,0 11.1,3.181 11.277,10.399 0.08,3.227 -1.001,5.974 -3.123,7.942 -1.988,1.845 -4.846,2.903 -8.047,2.982 -0.136,0.003 -0.27,0.005 -0.404,0.005"
             style="fill:#231916;fill-opacity:1;fill-rule:nonzero;stroke:none"
             id="path244" />
        </g>
        <g
           id="g246"
           transform="translate(266.2555,209.2926)">
          <path
             d="M 0,0 C -0.277,-1.422 -1.238,-2.113 -2.939,-2.113 H -3.081 V -3.57 h 2.704 v -8.35 H 1.522 V 0.115 h -1.5 z"
             style="fill:#231916;fill-opacity:1;fill-rule:nonzero;stroke:none"
             id="path248" />
        </g>
        <g
           id="g250"
           transform="translate(275.817,203.1658)">
          <path
             d="m 0,0 c -1.297,0 -2.239,0.97 -2.239,2.307 0,1.526 0.878,2.511 2.239,2.511 1.366,0 2.358,-1.049 2.358,-2.494 C 2.358,0.955 1.388,0 0,0 M 2.83,5.51 C 2.047,6.174 1.138,6.497 0.051,6.497 c -2.457,0 -4.173,-1.702 -4.173,-4.139 0,-2.425 1.575,-4.054 3.918,-4.054 1.211,0 2.238,0.464 2.939,1.317 -0.073,-1.213 -0.488,-3.89 -2.752,-3.89 -1.169,0 -1.904,0.685 -2.019,1.878 l -0.013,0.139 -1.881,-0.14 0.013,-0.144 c 0.195,-2.072 1.598,-3.36 3.662,-3.36 1.799,0 4.819,0.825 4.819,6.35 0,2.392 -0.567,4.046 -1.734,5.056"
             style="fill:#231916;fill-opacity:1;fill-rule:nonzero;stroke:none"
             id="path252" />
        </g>
        <g
           id="g254"
           transform="translate(287.9566,201.7373)">
          <path
             d="M 0,0 H -3.194 L 0.087,4.696 C 0.056,3.381 0.011,0.647 0,0 M 1.863,7.687 H 0.391 L -5.156,0.16 v -1.821 h 5.154 v -2.704 h 1.865 v 2.704 H 3.631 V 0 H 1.863 Z"
             style="fill:#231916;fill-opacity:1;fill-rule:nonzero;stroke:none"
             id="path256" />
        </g>
        <g
           id="g258"
           transform="translate(298.437,198.9309)">
          <path
             d="m 0,0 c -1.389,0 -2.358,1.019 -2.358,2.477 0,1.357 0.999,2.342 2.375,2.342 1.403,0 2.24,-0.901 2.24,-2.41 C 2.257,0.991 1.329,0 0,0 m 0.238,6.531 c -1.223,0 -2.293,-0.489 -2.959,-1.332 0.194,2.604 1.131,3.923 2.789,3.923 1.134,0 1.938,-0.754 2.002,-1.874 L 2.078,7.106 3.916,7.226 3.899,7.375 c -0.246,2.112 -1.666,3.374 -3.797,3.374 -1.094,0 -4.666,-0.453 -4.666,-6.282 0,-3.952 1.609,-6.128 4.53,-6.128 2.486,0 4.155,1.649 4.155,4.104 0,2.369 -1.633,4.088 -3.883,4.088"
             style="fill:#231916;fill-opacity:1;fill-rule:nonzero;stroke:none"
             id="path260" />
        </g>
        <g
           id="g262"
           transform="translate(157.6062,301.6065)">
          <path
             d="M 0,0 C 0,-1.879 1.523,-3.402 3.402,-3.402 5.28,-3.402 6.803,-1.879 6.803,0 6.803,1.879 5.28,3.402 3.402,3.402 1.523,3.402 0,1.879 0,0"
             style="fill:#231916;fill-opacity:1;fill-rule:nonzero;stroke:none"
             id="path264" />
        </g>
        <g
           id="g266"
           transform="translate(408.1889,301.6065)">
          <path
             d="M 0,0 C 0,1.879 -1.523,3.402 -3.401,3.402 -5.28,3.402 -6.803,1.879 -6.803,0 c 0,-1.879 1.523,-3.402 3.402,-3.402 C -1.523,-3.402 0,-1.879 0,0"
             style="fill:#231916;fill-opacity:1;fill-rule:nonzero;stroke:none"
             id="path268" />
        </g>
      </g>
    </g>
  </g>
</svg>
