<?xml version="1.0" encoding="UTF-8" standalone="no"?>
<!-- Created with sK1/UniConvertor (http://sk1project.org/) -->
<!-- Real Width and Height -->
<!-- width="595.276pt" height="841.89pt" -->
<svg
   width="480"
   height="160"
   viewBox="262 471 240 80"
   fill-rule="evenodd"
   version="1.1"
   id="svg282"
   sodipodi:docname="saman_CI.svg"
   inkscape:version="1.3.2 (091e20e, 2023-11-25, custom)"
   xmlns:inkscape="http://www.inkscape.org/namespaces/inkscape"
   xmlns:sodipodi="http://sodipodi.sourceforge.net/DTD/sodipodi-0.dtd"
   xmlns="http://www.w3.org/2000/svg"
   xmlns:svg="http://www.w3.org/2000/svg">
  <defs
     id="defs282" />
  <sodipodi:namedview
     id="namedview282"
     pagecolor="#ffffff"
     bordercolor="#000000"
     borderopacity="0.25"
     inkscape:showpageshadow="2"
     inkscape:pageopacity="0.0"
     inkscape:pagecheckerboard="0"
     inkscape:deskcolor="#d1d1d1"
     inkscape:document-units="pt"
     inkscape:zoom="1.052097"
     inkscape:cx="396.82651"
     inkscape:cy="561.26001"
     inkscape:window-width="2560"
     inkscape:window-height="1377"
     inkscape:window-x="3832"
     inkscape:window-y="-8"
     inkscape:window-maximized="1"
     inkscape:current-layer="g281" />
  <g
     id="g282">
    <g
       id="g281">
      <g
         id="g10">
        <path
           style="stroke:none; fill:#6e6f70"
           d="M 351.962 509.746L 351.962 504.78C 355.323 506.193 358.193 506.897 360.575 506.897C 361.841 506.897 362.853 506.631 363.607 506.099C 364.365 505.567 364.745 504.888 364.745 504.067C 364.745 503.352 364.46 502.748 363.898 502.262C 363.335 501.789 362.474 501.326 361.317 500.87L 359.033 499.958C 356.668 499.014 354.928 497.971 353.802 496.83C 352.673 495.707 352.111 494.236 352.111 492.424C 352.111 490.249 352.956 488.451 354.655 487.039C 356.35 485.623 358.94 484.914 362.424 484.914C 364.466 484.914 366.895 485.205 369.707 485.791L 369.707 490.465C 367.03 489.589 364.814 489.151 363.054 489.151C 361.668 489.151 360.628 489.39 359.939 489.868C 359.248 490.351 358.901 490.969 358.901 491.73C 358.901 492.322 359.127 492.85 359.578 493.306C 360.015 493.761 360.813 494.212 361.973 494.651L 363.911 495.403C 367.119 496.638 369.22 497.833 370.212 498.986C 371.19 500.161 371.684 501.562 371.684 503.19C 371.684 505.304 370.771 507.156 368.949 508.748C 367.129 510.335 364.482 511.133 361.009 511.133C 358.057 511.133 355.039 510.669 351.962 509.746z"
           id="path1" />
        <path
           style="stroke:none; fill:#6e6f70"
           d="M 389.971 507.921C 388.999 508.849 388.157 509.514 387.444 509.918C 386.73 510.323 385.98 510.625 385.208 510.827C 384.433 511.032 383.611 511.133 382.748 511.133C 380.512 511.133 378.722 510.437 377.379 509.043C 376.031 507.655 375.362 505.946 375.362 503.927C 375.362 501.462 376.365 499.408 378.381 497.76C 380.392 496.11 383.656 495.286 388.168 495.286L 389.966 495.286L 389.966 493.022C 389.966 491.496 389.544 490.472 388.69 489.944C 387.839 489.415 386.76 489.151 385.456 489.151C 382.874 489.151 380.24 489.891 377.552 491.368L 377.552 486.666C 380.607 485.5 383.647 484.914 386.678 484.914C 388.532 484.914 390.192 485.167 391.654 485.67C 393.114 486.174 394.281 486.956 395.152 488.015C 396.028 489.074 396.467 490.656 396.467 492.758L 396.467 503.873C 396.467 505.233 396.672 506.06 397.094 506.366C 397.504 506.672 397.922 506.825 398.331 506.825C 398.574 506.825 398.877 506.798 399.242 506.745L 399.387 510.499C 397.959 510.921 396.69 511.133 395.582 511.133C 394.334 511.133 393.258 510.926 392.353 510.516C 391.452 510.105 390.754 509.237 390.269 507.921L 389.971 507.921zM 389.966 504.282L 389.966 499.153L 388.375 499.153C 386.183 499.153 384.548 499.55 383.471 500.338C 382.397 501.129 381.86 502.114 381.86 503.295C 381.86 504.258 382.184 505.052 382.834 505.675C 383.486 506.292 384.252 506.604 385.127 506.604C 385.916 506.604 386.716 506.409 387.527 506.016C 388.335 505.628 389.148 505.049 389.966 504.282z"
           id="path2" />
        <path
           style="stroke:none; fill:#6e6f70"
           d="M 403.824 510.548L 403.824 485.5L 410.325 485.5L 410.325 490.218C 411.176 488.696 412.29 487.433 413.67 486.425C 415.053 485.419 416.752 484.914 418.761 484.914C 419.978 484.914 421.039 485.102 421.935 485.476C 422.834 485.85 423.631 486.437 424.326 487.238C 425.018 488.037 425.46 489.031 425.662 490.218C 426.905 488.332 428.171 486.975 429.455 486.15C 430.74 485.325 432.302 484.914 434.139 484.914C 436.175 484.914 437.826 485.514 439.093 486.706C 440.361 487.901 440.999 489.83 440.999 492.493L 440.999 510.548L 434.494 510.548L 434.494 494.697C 434.494 492.825 434.2 491.617 433.599 491.069C 433.001 490.521 432.334 490.246 431.592 490.246C 430.575 490.246 429.573 490.612 428.58 491.344C 427.588 492.077 426.617 493.175 425.662 494.634L 425.662 510.548L 419.159 510.548L 419.159 494.715C 419.159 492.86 418.866 491.652 418.286 491.088C 417.7 490.527 416.996 490.246 416.178 490.246C 415.19 490.246 414.206 490.609 413.229 491.333C 412.25 492.061 411.283 493.159 410.325 494.634L 410.325 510.548L 403.824 510.548z"
           id="path3" />
        <path
           style="stroke:none; fill:#6e6f70"
           d="M 474.037 510.548L 474.037 485.5L 480.834 485.5L 480.834 490.224C 482.041 488.284 483.379 486.917 484.853 486.116C 486.324 485.314 487.815 484.914 489.33 484.914C 491.299 484.914 492.992 485.55 494.41 486.82C 495.824 488.092 496.535 490.094 496.535 492.834L 496.535 510.548L 489.74 510.548L 489.74 494.51C 489.74 493.142 489.619 492.214 489.371 491.73C 489.119 491.245 488.783 490.872 488.353 490.621C 487.924 490.371 487.449 490.246 486.922 490.246C 486.004 490.246 485.049 490.555 484.057 491.169C 483.061 491.788 481.988 492.991 480.834 494.784L 480.834 510.548L 474.037 510.548z"
           id="path4" />
        <path
           style="stroke:none; fill:#6e6f70"
           d="M 463.215 492.502C 464.301 492.388 466.592 492.214 466.592 492.214C 466.537 490.318 466.099 489.004 465.283 488.015C 464.406 486.956 463.24 486.174 461.781 485.67C 460.321 485.167 458.662 484.914 456.806 484.914C 453.777 484.914 450.736 485.5 447.677 486.666L 447.677 491.368C 450.369 489.891 453.004 489.151 455.586 489.151C 456.888 489.151 457.967 489.415 458.816 489.944C 459.67 490.472 460.115 491.435 460.115 492.96C 460.115 492.96 462.121 492.614 463.215 492.502z"
           id="path5" />
        <path
           style="stroke:none; fill:#6e6f70"
           d="M 466.609 494.539C 469.31 493.852 471.559 493.451 472.389 493.451L 472.389 492.687C 470.305 492.673 468.383 492.727 466.609 492.834C 464.166 492.983 462.006 493.233 460.105 493.548C 453.34 494.681 449.879 496.646 448.521 497.754C 446.51 499.406 445.5 501.462 445.5 503.926C 445.5 505.946 446.172 507.654 447.52 509.043C 448.863 510.434 450.653 511.13 452.889 511.13C 453.752 511.13 454.574 511.029 455.352 510.827C 456.125 510.623 456.871 510.321 457.584 509.916C 458.295 509.514 459.162 508.823 460.129 507.899L 460.41 507.899C 460.896 509.218 461.592 510.083 462.496 510.493C 463.398 510.906 464.475 511.111 465.721 511.111C 466.828 511.111 468.102 510.901 469.527 510.48L 469.379 506.723C 469.018 506.775 468.715 506.803 468.471 506.803C 468.06 506.803 467.647 506.65 467.232 506.345C 466.814 506.042 466.605 505.211 466.605 503.853L 466.605 494.541L 466.609 494.539zM 460.111 504.271C 459.303 505.023 458.463 505.633 457.667 506.016C 456.855 506.407 456.06 506.602 455.272 506.602C 454.391 506.602 453.629 506.292 452.978 505.669C 452.326 505.049 452 504.255 452 503.291C 452 502.114 452.69 500.795 453.98 499.705C 455.353 498.55 457.62 497.469 460.105 496.543L 460.11 496.541L 460.111 504.271z"
           id="path6" />
        <defs
           id="defs10">
          <linearGradient
             id="1"
             x1="458.591"
             y1="492.139"
             x2="459.298"
             y2="509.099"
             gradientUnits="userSpaceOnUse">
            <stop
               offset="0"
               style="stop-color:#ef7e20"
               id="stop6" />
            <stop
               offset="0.371631"
               style="stop-color:#ef7e20"
               id="stop7" />
            <stop
               offset="0.421044"
               style="stop-color:#ef7e20"
               id="stop8" />
            <stop
               offset="0.771434"
               style="stop-color:#6e6f70"
               id="stop9" />
            <stop
               offset="1"
               style="stop-color:#6e6f70"
               id="stop10" />
          </linearGradient>
        </defs>
        <path
           style="stroke:none; fill:url(#1)"
           d="M 466.609 492.834C 464.166 492.983 462.006 493.233 460.105 493.548C 453.34 494.681 449.879 496.646 448.521 497.754C 446.51 499.406 445.508 501.462 445.5 503.926C 445.491 506.567 446.738 508.045 447.06 508.553L 452.424 505.088C 452.422 505.022 451.961 504.118 452 503.291C 452.065 502.115 452.69 500.795 453.98 499.705C 455.353 498.55 457.62 497.469 460.105 496.543L 466.609 494.539C 469.31 493.852 471.559 493.451 472.389 493.451L 472.389 492.687C 470.305 492.673 468.383 492.727 466.609 492.834z"
           id="path10" />
      </g>
      <g
         id="g270">
        <path
           style="stroke:none; fill:#ef7e20"
           d="M 303.234 548.421L 265.963 511.149L 303.234 473.878L 340.505 511.149L 303.234 548.421z"
           id="path11" />
        <g
           id="g13">
          <path
             style="stroke:none; fill:#ef7e20"
             d="M 303.236 548.423L 270.904 516.09C 270.904 516.09 280.683 494.139 303.236 494.139C 325.79 494.139 335.612 515.67 335.612 515.67L 303.236 548.423z"
             id="path12" />
          <path
             style="stroke:none; fill:#ffffff"
             d="M 319.969 531.691C 319.969 531.691 311.335 527.549 303.227 527.549C 295.119 527.549 286.505 531.691 286.505 531.691L 303.236 548.423L 319.969 531.691z"
             id="path13" />
        </g>
        <g
           id="g269">
          <path
             style="stroke:none; fill:#ef7e20"
             d="M 303.236 548.423L 270.904 516.09C 270.904 516.09 280.683 494.139 303.236 494.139C 325.79 494.139 335.612 515.67 335.612 515.67L 303.236 548.423z"
             id="path14" />
          <path
             style="stroke:none; fill:#ef8021"
             d="M 303.236 494.27C 325.733 494.27 335.55 515.733 335.55 515.733L 303.236 548.423L 270.965 516.151C 270.965 516.151 280.74 494.27 303.236 494.27z"
             id="path15" />
          <path
             style="stroke:none; fill:#ef8122"
             d="M 303.236 494.401C 325.677 494.401 335.489 515.796 335.489 515.796L 303.236 548.423L 271.027 516.213C 271.027 516.213 280.796 494.401 303.236 494.401z"
             id="path16" />
          <path
             style="stroke:none; fill:#ef8123"
             d="M 303.236 494.532C 325.62 494.532 335.428 515.858 335.428 515.858L 303.236 548.423L 271.088 516.274C 271.088 516.274 280.853 494.532 303.236 494.532z"
             id="path17" />
          <path
             style="stroke:none; fill:#f08224"
             d="M 303.236 494.663C 325.564 494.663 335.366 515.922 335.366 515.922L 303.236 548.423L 271.149 516.335C 271.149 516.335 280.91 494.663 303.236 494.663z"
             id="path18" />
          <path
             style="stroke:none; fill:#f08325"
             d="M 303.236 494.795C 325.507 494.795 335.305 515.984 335.305 515.984L 303.236 548.423L 271.21 516.396C 271.21 516.396 280.966 494.795 303.236 494.795z"
             id="path19" />
          <path
             style="stroke:none; fill:#f08325"
             d="M 303.236 494.925C 325.45 494.925 335.244 516.047 335.244 516.047L 303.236 548.423L 271.272 516.457C 271.272 516.457 281.023 494.925 303.236 494.925z"
             id="path20" />
          <path
             style="stroke:none; fill:#f08425"
             d="M 303.236 495.056C 325.393 495.056 335.183 516.11 335.183 516.11L 303.236 548.423L 271.332 516.518C 271.332 516.518 281.08 495.056 303.236 495.056z"
             id="path21" />
          <path
             style="stroke:none; fill:#f08427"
             d="M 303.235 495.188C 325.336 495.188 335.121 516.172 335.121 516.172L 303.236 548.423L 271.394 516.579C 271.394 516.579 281.136 495.188 303.235 495.188z"
             id="path22" />
          <path
             style="stroke:none; fill:#f08528"
             d="M 303.235 495.318C 325.28 495.318 335.06 516.235 335.06 516.235L 303.236 548.423L 271.455 516.641C 271.455 516.641 281.192 495.318 303.235 495.318z"
             id="path23" />
          <path
             style="stroke:none; fill:#f08529"
             d="M 303.235 495.449C 325.223 495.449 334.999 516.298 334.999 516.298L 303.236 548.423L 271.516 516.702C 271.516 516.702 281.249 495.449 303.235 495.449z"
             id="path24" />
          <path
             style="stroke:none; fill:#f0852a"
             d="M 303.235 495.581C 325.167 495.581 334.937 516.361 334.937 516.361L 303.236 548.423L 271.577 516.763C 271.577 516.763 281.306 495.581 303.235 495.581z"
             id="path25" />
          <path
             style="stroke:none; fill:#f0862a"
             d="M 303.235 495.712C 325.11 495.712 334.875 516.424 334.875 516.424L 303.236 548.423L 271.639 516.824C 271.639 516.824 281.362 495.712 303.235 495.712z"
             id="path26" />
          <path
             style="stroke:none; fill:#f0862c"
             d="M 303.235 495.842C 325.053 495.842 334.815 516.487 334.815 516.487L 303.236 548.423L 271.7 516.885C 271.7 516.885 281.419 495.842 303.235 495.842z"
             id="path27" />
          <path
             style="stroke:none; fill:#f1872c"
             d="M 303.235 495.974C 324.997 495.974 334.753 516.549 334.753 516.549L 303.236 548.423L 271.761 516.946C 271.761 516.946 281.476 495.974 303.235 495.974z"
             id="path28" />
          <path
             style="stroke:none; fill:#f1872d"
             d="M 303.235 496.105C 324.94 496.105 334.691 516.612 334.691 516.612L 303.236 548.423L 271.822 517.007C 271.822 517.007 281.532 496.105 303.235 496.105z"
             id="path29" />
          <path
             style="stroke:none; fill:#f1872d"
             d="M 303.235 496.235C 324.883 496.235 334.63 516.675 334.63 516.675L 303.236 548.423L 271.883 517.069C 271.883 517.069 281.589 496.235 303.235 496.235z"
             id="path30" />
          <path
             style="stroke:none; fill:#f1882e"
             d="M 303.235 496.367C 324.826 496.367 334.569 516.738 334.569 516.738L 303.236 548.423L 271.944 517.13C 271.944 517.13 281.646 496.367 303.235 496.367z"
             id="path31" />
          <path
             style="stroke:none; fill:#f1882f"
             d="M 303.235 496.498C 324.77 496.498 334.508 516.801 334.508 516.801L 303.236 548.423L 272.005 517.191C 272.005 517.191 281.702 496.498 303.235 496.498z"
             id="path32" />
          <path
             style="stroke:none; fill:#f18930"
             d="M 303.235 496.629C 324.713 496.629 334.446 516.864 334.446 516.864L 303.236 548.423L 272.067 517.253C 272.067 517.253 281.759 496.629 303.235 496.629z"
             id="path33" />
          <path
             style="stroke:none; fill:#f18930"
             d="M 303.235 496.76C 324.656 496.76 334.385 516.926 334.385 516.926L 303.236 548.423L 272.128 517.314C 272.128 517.314 281.815 496.76 303.235 496.76z"
             id="path34" />
          <path
             style="stroke:none; fill:#f18a30"
             d="M 303.235 496.891C 324.6 496.891 334.324 516.989 334.324 516.989L 303.236 548.423L 272.189 517.375C 272.189 517.375 281.872 496.891 303.235 496.891z"
             id="path35" />
          <path
             style="stroke:none; fill:#f18b31"
             d="M 303.235 497.022C 324.543 497.022 334.262 517.052 334.262 517.052L 303.236 548.423L 272.25 517.436C 272.25 517.436 281.929 497.022 303.235 497.022z"
             id="path36" />
          <path
             style="stroke:none; fill:#f18b33"
             d="M 303.235 497.153C 324.486 497.153 334.201 517.115 334.201 517.115L 303.236 548.423L 272.311 517.497C 272.311 517.497 281.985 497.153 303.235 497.153z"
             id="path37" />
          <path
             style="stroke:none; fill:#f18d34"
             d="M 303.235 497.284C 324.43 497.284 334.14 517.178 334.14 517.178L 303.236 548.423L 272.373 517.558C 272.373 517.558 282.042 497.284 303.235 497.284z"
             id="path38" />
          <path
             style="stroke:none; fill:#f38e34"
             d="M 303.235 497.415C 324.373 497.415 334.078 517.241 334.078 517.241L 303.236 548.423L 272.434 517.619C 272.434 517.619 282.099 497.415 303.235 497.415z"
             id="path39" />
          <path
             style="stroke:none; fill:#f38e36"
             d="M 303.235 497.546C 324.316 497.546 334.017 517.303 334.017 517.303L 303.236 548.423L 272.495 517.681C 272.495 517.681 282.155 497.546 303.235 497.546z"
             id="path40" />
          <path
             style="stroke:none; fill:#f38f37"
             d="M 303.235 497.677C 324.259 497.677 333.956 517.366 333.956 517.366L 303.236 548.423L 272.556 517.742C 272.556 517.742 282.211 497.677 303.235 497.677z"
             id="path41" />
          <path
             style="stroke:none; fill:#f38f37"
             d="M 303.235 497.808C 324.203 497.808 333.894 517.429 333.894 517.429L 303.236 548.423L 272.617 517.803C 272.617 517.803 282.268 497.808 303.235 497.808z"
             id="path42" />
          <path
             style="stroke:none; fill:#f38f38"
             d="M 303.235 497.939C 324.146 497.939 333.833 517.492 333.833 517.492L 303.236 548.423L 272.679 517.864C 272.679 517.864 282.325 497.939 303.235 497.939z"
             id="path43" />
          <path
             style="stroke:none; fill:#f39039"
             d="M 303.235 498.07C 324.089 498.07 333.772 517.555 333.772 517.555L 303.236 548.423L 272.74 517.925C 272.74 517.925 282.381 498.07 303.235 498.07z"
             id="path44" />
          <path
             style="stroke:none; fill:#f39039"
             d="M 303.235 498.201C 324.033 498.201 333.71 517.618 333.71 517.618L 303.236 548.423L 272.801 517.986C 272.801 517.986 282.438 498.201 303.235 498.201z"
             id="path45" />
          <path
             style="stroke:none; fill:#f39139"
             d="M 303.235 498.332C 323.976 498.332 333.649 517.68 333.649 517.68L 303.236 548.423L 272.862 518.047C 272.862 518.047 282.495 498.332 303.235 498.332z"
             id="path46" />
          <path
             style="stroke:none; fill:#f39139"
             d="M 303.235 498.463C 323.919 498.463 333.587 517.743 333.587 517.743L 303.236 548.423L 272.923 518.109C 272.923 518.109 282.551 498.463 303.235 498.463z"
             id="path47" />
          <path
             style="stroke:none; fill:#f3923a"
             d="M 303.235 498.594C 323.863 498.594 333.526 517.806 333.526 517.806L 303.236 548.423L 272.984 518.17C 272.984 518.17 282.608 498.594 303.235 498.594z"
             id="path48" />
          <path
             style="stroke:none; fill:#f3923b"
             d="M 303.235 498.725C 323.806 498.725 333.465 517.869 333.465 517.869L 303.236 548.423L 273.045 518.231C 273.045 518.231 282.665 498.725 303.235 498.725z"
             id="path49" />
          <path
             style="stroke:none; fill:#f3923b"
             d="M 303.234 498.856C 323.75 498.856 333.403 517.932 333.403 517.932L 303.236 548.423L 273.107 518.293C 273.107 518.293 282.721 498.856 303.234 498.856z"
             id="path50" />
          <path
             style="stroke:none; fill:#f4933c"
             d="M 303.234 498.987C 323.693 498.987 333.342 517.995 333.342 517.995L 303.236 548.423L 273.168 518.354C 273.168 518.354 282.778 498.987 303.234 498.987z"
             id="path51" />
          <path
             style="stroke:none; fill:#f4933d"
             d="M 303.234 499.118C 323.636 499.118 333.281 518.057 333.281 518.057L 303.236 548.423L 273.229 518.415C 273.229 518.415 282.835 499.118 303.234 499.118z"
             id="path52" />
          <path
             style="stroke:none; fill:#f49440"
             d="M 303.234 499.249C 323.579 499.249 333.219 518.12 333.219 518.12L 303.236 548.423L 273.29 518.476C 273.29 518.476 282.891 499.249 303.234 499.249z"
             id="path53" />
          <path
             style="stroke:none; fill:#f49440"
             d="M 303.234 499.38C 323.522 499.38 333.158 518.183 333.158 518.183L 303.236 548.423L 273.352 518.537C 273.352 518.537 282.948 499.38 303.234 499.38z"
             id="path54" />
          <path
             style="stroke:none; fill:#f49541"
             d="M 303.234 499.511C 323.466 499.511 333.097 518.246 333.097 518.246L 303.236 548.423L 273.413 518.598C 273.413 518.598 283.004 499.511 303.234 499.511z"
             id="path55" />
          <path
             style="stroke:none; fill:#f49642"
             d="M 303.234 499.642C 323.409 499.642 333.035 518.309 333.035 518.309L 303.236 548.423L 273.474 518.659C 273.474 518.659 283.061 499.642 303.234 499.642z"
             id="path56" />
          <path
             style="stroke:none; fill:#f49643"
             d="M 303.234 499.773C 323.353 499.773 332.974 518.372 332.974 518.372L 303.236 548.423L 273.535 518.721C 273.535 518.721 283.117 499.773 303.234 499.773z"
             id="path57" />
          <path
             style="stroke:none; fill:#f49743"
             d="M 303.234 499.904C 323.296 499.904 332.913 518.434 332.913 518.434L 303.236 548.423L 273.596 518.782C 273.596 518.782 283.174 499.904 303.234 499.904z"
             id="path58" />
          <path
             style="stroke:none; fill:#f49744"
             d="M 303.234 500.035C 323.239 500.035 332.851 518.497 332.851 518.497L 303.236 548.423L 273.657 518.843C 273.657 518.843 283.23 500.035 303.234 500.035z"
             id="path59" />
          <path
             style="stroke:none; fill:#f49745"
             d="M 303.234 500.166C 323.183 500.166 332.79 518.56 332.79 518.56L 303.236 548.423L 273.719 518.904C 273.719 518.904 283.287 500.166 303.234 500.166z"
             id="path60" />
          <path
             style="stroke:none; fill:#f59946"
             d="M 303.234 500.297C 323.126 500.297 332.728 518.623 332.728 518.623L 303.236 548.423L 273.78 518.965C 273.78 518.965 283.344 500.297 303.234 500.297z"
             id="path61" />
          <path
             style="stroke:none; fill:#f59946"
             d="M 303.234 500.428C 323.069 500.428 332.668 518.686 332.668 518.686L 303.236 548.423L 273.841 519.026C 273.841 519.026 283.4 500.428 303.234 500.428z"
             id="path62" />
          <path
             style="stroke:none; fill:#f59a46"
             d="M 303.234 500.559C 323.012 500.559 332.606 518.749 332.606 518.749L 303.236 548.423L 273.902 519.088C 273.902 519.088 283.457 500.559 303.234 500.559z"
             id="path63" />
          <path
             style="stroke:none; fill:#f59b47"
             d="M 303.234 500.69C 322.956 500.69 332.544 518.811 332.544 518.811L 303.236 548.423L 273.963 519.149C 273.963 519.149 283.514 500.69 303.234 500.69z"
             id="path64" />
          <path
             style="stroke:none; fill:#f59b48"
             d="M 303.234 500.821C 322.899 500.821 332.483 518.874 332.483 518.874L 303.236 548.423L 274.024 519.21C 274.024 519.21 283.57 500.821 303.234 500.821z"
             id="path65" />
          <path
             style="stroke:none; fill:#f59c49"
             d="M 303.234 500.952C 322.842 500.952 332.422 518.937 332.422 518.937L 303.236 548.423L 274.085 519.271C 274.085 519.271 283.627 500.952 303.234 500.952z"
             id="path66" />
          <path
             style="stroke:none; fill:#f59c4a"
             d="M 303.234 501.083C 322.786 501.083 332.36 519 332.36 519L 303.236 548.423L 274.147 519.333C 274.147 519.333 283.684 501.083 303.234 501.083z"
             id="path67" />
          <path
             style="stroke:none; fill:#f59d4b"
             d="M 303.234 501.214C 322.729 501.214 332.299 519.063 332.299 519.063L 303.236 548.423L 274.208 519.394C 274.208 519.394 283.74 501.214 303.234 501.214z"
             id="path68" />
          <path
             style="stroke:none; fill:#f59d4d"
             d="M 303.234 501.345C 322.672 501.345 332.238 519.126 332.238 519.126L 303.236 548.423L 274.269 519.455C 274.269 519.455 283.797 501.345 303.234 501.345z"
             id="path69" />
          <path
             style="stroke:none; fill:#f59e4e"
             d="M 303.234 501.476C 322.616 501.476 332.176 519.188 332.176 519.188L 303.236 548.423L 274.33 519.516C 274.33 519.516 283.853 501.476 303.234 501.476z"
             id="path70" />
          <path
             style="stroke:none; fill:#f59f4e"
             d="M 303.234 501.608C 322.559 501.608 332.115 519.251 332.115 519.251L 303.236 548.423L 274.392 519.577C 274.392 519.577 283.91 501.608 303.234 501.608z"
             id="path71" />
          <path
             style="stroke:none; fill:#f59f4f"
             d="M 303.234 501.738C 322.502 501.738 332.054 519.314 332.054 519.314L 303.236 548.423L 274.453 519.638C 274.453 519.638 283.967 501.738 303.234 501.738z"
             id="path72" />
          <path
             style="stroke:none; fill:#f69f4f"
             d="M 303.234 501.869C 322.445 501.869 331.993 519.377 331.993 519.377L 303.236 548.423L 274.514 519.699C 274.514 519.699 284.023 501.869 303.234 501.869z"
             id="path73" />
          <path
             style="stroke:none; fill:#f69f50"
             d="M 303.234 502.001C 322.389 502.001 331.931 519.44 331.931 519.44L 303.236 548.423L 274.575 519.761C 274.575 519.761 284.08 502.001 303.234 502.001z"
             id="path74" />
          <path
             style="stroke:none; fill:#f69f51"
             d="M 303.234 502.131C 322.332 502.131 331.87 519.503 331.87 519.503L 303.236 548.423L 274.636 519.822C 274.636 519.822 284.136 502.131 303.234 502.131z"
             id="path75" />
          <path
             style="stroke:none; fill:#f6a052"
             d="M 303.234 502.262C 322.275 502.262 331.809 519.565 331.809 519.565L 303.236 548.423L 274.697 519.883C 274.697 519.883 284.193 502.262 303.234 502.262z"
             id="path76" />
          <path
             style="stroke:none; fill:#f6a052"
             d="M 303.234 502.394C 322.219 502.394 331.747 519.628 331.747 519.628L 303.236 548.423L 274.759 519.944C 274.759 519.944 284.25 502.394 303.234 502.394z"
             id="path77" />
          <path
             style="stroke:none; fill:#f6a153"
             d="M 303.233 502.525C 322.162 502.525 331.685 519.691 331.685 519.691L 303.236 548.423L 274.82 520.005C 274.82 520.005 284.306 502.525 303.233 502.525z"
             id="path78" />
          <path
             style="stroke:none; fill:#f6a254"
             d="M 303.233 502.655C 322.105 502.655 331.625 519.754 331.625 519.754L 303.236 548.423L 274.881 520.067C 274.881 520.067 284.363 502.655 303.233 502.655z"
             id="path79" />
          <path
             style="stroke:none; fill:#f6a255"
             d="M 303.233 502.787C 322.049 502.787 331.563 519.817 331.563 519.817L 303.236 548.423L 274.942 520.128C 274.942 520.128 284.419 502.787 303.233 502.787z"
             id="path80" />
          <path
             style="stroke:none; fill:#f6a356"
             d="M 303.233 502.918C 321.992 502.918 331.501 519.879 331.501 519.879L 303.236 548.423L 275.003 520.189C 275.003 520.189 284.476 502.918 303.233 502.918z"
             id="path81" />
          <path
             style="stroke:none; fill:#f6a356"
             d="M 303.233 503.048C 321.935 503.048 331.44 519.942 331.44 519.942L 303.236 548.423L 275.065 520.25C 275.065 520.25 284.533 503.048 303.233 503.048z"
             id="path82" />
          <path
             style="stroke:none; fill:#f6a457"
             d="M 303.233 503.18C 321.879 503.18 331.379 520.005 331.379 520.005L 303.236 548.423L 275.125 520.311C 275.125 520.311 284.589 503.18 303.233 503.18z"
             id="path83" />
          <path
             style="stroke:none; fill:#f7a657"
             d="M 303.233 503.311C 321.822 503.311 331.318 520.068 331.318 520.068L 303.236 548.423L 275.187 520.373C 275.187 520.373 284.646 503.311 303.233 503.311z"
             id="path84" />
          <path
             style="stroke:none; fill:#f7a658"
             d="M 303.233 503.442C 321.765 503.442 331.256 520.13 331.256 520.13L 303.236 548.423L 275.248 520.434C 275.248 520.434 284.703 503.442 303.233 503.442z"
             id="path85" />
          <path
             style="stroke:none; fill:#f7a65a"
             d="M 303.233 503.573C 321.708 503.573 331.195 520.193 331.195 520.193L 303.236 548.423L 275.309 520.495C 275.309 520.495 284.759 503.573 303.233 503.573z"
             id="path86" />
          <path
             style="stroke:none; fill:#f7a75b"
             d="M 303.233 503.704C 321.652 503.704 331.134 520.256 331.134 520.256L 303.236 548.423L 275.37 520.556C 275.37 520.556 284.816 503.704 303.233 503.704z"
             id="path87" />
          <path
             style="stroke:none; fill:#f7a75c"
             d="M 303.233 503.835C 321.595 503.835 331.072 520.319 331.072 520.319L 303.236 548.423L 275.432 520.617C 275.432 520.617 284.873 503.835 303.233 503.835z"
             id="path88" />
          <path
             style="stroke:none; fill:#f7a75d"
             d="M 303.233 503.966C 321.539 503.966 331.011 520.382 331.011 520.382L 303.236 548.423L 275.493 520.678C 275.493 520.678 284.929 503.966 303.233 503.966z"
             id="path89" />
          <path
             style="stroke:none; fill:#f7a85e"
             d="M 303.233 504.097C 321.482 504.097 330.95 520.445 330.95 520.445L 303.236 548.423L 275.554 520.739C 275.554 520.739 284.986 504.097 303.233 504.097z"
             id="path90" />
          <path
             style="stroke:none; fill:#f7a95f"
             d="M 303.233 504.228C 321.425 504.228 330.888 520.507 330.888 520.507L 303.236 548.423L 275.615 520.801C 275.615 520.801 285.042 504.228 303.233 504.228z"
             id="path91" />
          <path
             style="stroke:none; fill:#f7a95f"
             d="M 303.233 504.359C 321.369 504.359 330.827 520.57 330.827 520.57L 303.236 548.423L 275.676 520.862C 275.676 520.862 285.099 504.359 303.233 504.359z"
             id="path92" />
          <path
             style="stroke:none; fill:#f7aa60"
             d="M 303.233 504.49C 321.312 504.49 330.766 520.633 330.766 520.633L 303.236 548.423L 275.737 520.923C 275.737 520.923 285.155 504.49 303.233 504.49z"
             id="path93" />
          <path
             style="stroke:none; fill:#f7aa61"
             d="M 303.233 504.621C 321.255 504.621 330.704 520.696 330.704 520.696L 303.236 548.423L 275.799 520.984C 275.799 520.984 285.212 504.621 303.233 504.621z"
             id="path94" />
          <path
             style="stroke:none; fill:#f7ab62"
             d="M 303.233 504.752C 321.198 504.752 330.643 520.759 330.643 520.759L 303.236 548.423L 275.86 521.046C 275.86 521.046 285.269 504.752 303.233 504.752z"
             id="path95" />
          <path
             style="stroke:none; fill:#f7ac63"
             d="M 303.233 504.883C 321.142 504.883 330.582 520.822 330.582 520.822L 303.236 548.423L 275.921 521.107C 275.921 521.107 285.325 504.883 303.233 504.883z"
             id="path96" />
          <path
             style="stroke:none; fill:#f7ac64"
             d="M 303.233 505.014C 321.085 505.014 330.52 520.884 330.52 520.884L 303.236 548.423L 275.982 521.168C 275.982 521.168 285.382 505.014 303.233 505.014z"
             id="path97" />
          <path
             style="stroke:none; fill:#f7ac64"
             d="M 303.233 505.145C 321.028 505.145 330.459 520.947 330.459 520.947L 303.236 548.423L 276.043 521.229C 276.043 521.229 285.439 505.145 303.233 505.145z"
             id="path98" />
          <path
             style="stroke:none; fill:#f7ac64"
             d="M 303.233 505.276C 320.972 505.276 330.397 521.01 330.397 521.01L 303.236 548.423L 276.104 521.29C 276.104 521.29 285.495 505.276 303.233 505.276z"
             id="path99" />
          <path
             style="stroke:none; fill:#f8ac66"
             d="M 303.233 505.407C 320.915 505.407 330.336 521.073 330.336 521.073L 303.236 548.423L 276.165 521.351C 276.165 521.351 285.552 505.407 303.233 505.407z"
             id="path100" />
          <path
             style="stroke:none; fill:#f8ad67"
             d="M 303.233 505.538C 320.858 505.538 330.275 521.136 330.275 521.136L 303.236 548.423L 276.227 521.413C 276.227 521.413 285.608 505.538 303.233 505.538z"
             id="path101" />
          <path
             style="stroke:none; fill:#f8ad68"
             d="M 303.233 505.669C 320.802 505.669 330.213 521.199 330.213 521.199L 303.236 548.423L 276.288 521.474C 276.288 521.474 285.665 505.669 303.233 505.669z"
             id="path102" />
          <path
             style="stroke:none; fill:#f8ae69"
             d="M 303.233 505.8C 320.745 505.8 330.152 521.261 330.152 521.261L 303.236 548.423L 276.349 521.535C 276.349 521.535 285.722 505.8 303.233 505.8z"
             id="path103" />
          <path
             style="stroke:none; fill:#f8af6b"
             d="M 303.233 505.931C 320.689 505.931 330.091 521.324 330.091 521.324L 303.236 548.423L 276.41 521.596C 276.41 521.596 285.778 505.931 303.233 505.931z"
             id="path104" />
          <path
             style="stroke:none; fill:#f8af6c"
             d="M 303.233 506.062C 320.631 506.062 330.029 521.387 330.029 521.387L 303.236 548.423L 276.472 521.657C 276.472 521.657 285.835 506.062 303.233 506.062z"
             id="path105" />
          <path
             style="stroke:none; fill:#f8b06c"
             d="M 303.233 506.193C 320.575 506.193 329.968 521.45 329.968 521.45L 303.236 548.423L 276.533 521.718C 276.533 521.718 285.892 506.193 303.233 506.193z"
             id="path106" />
          <path
             style="stroke:none; fill:#f8b06d"
             d="M 303.232 506.324C 320.518 506.324 329.907 521.513 329.907 521.513L 303.236 548.423L 276.594 521.779C 276.594 521.779 285.948 506.324 303.232 506.324z"
             id="path107" />
          <path
             style="stroke:none; fill:#f8b16e"
             d="M 303.232 506.455C 320.461 506.455 329.845 521.576 329.845 521.576L 303.236 548.423L 276.655 521.841C 276.655 521.841 286.004 506.455 303.232 506.455z"
             id="path108" />
          <path
             style="stroke:none; fill:#f8b16e"
             d="M 303.232 506.586C 320.405 506.586 329.784 521.638 329.784 521.638L 303.236 548.423L 276.716 521.902C 276.716 521.902 286.061 506.586 303.232 506.586z"
             id="path109" />
          <path
             style="stroke:none; fill:#f8b36f"
             d="M 303.232 506.717C 320.348 506.717 329.723 521.701 329.723 521.701L 303.236 548.423L 276.777 521.963C 276.777 521.963 286.118 506.717 303.232 506.717z"
             id="path110" />
          <path
             style="stroke:none; fill:#f8b36f"
             d="M 303.232 506.848C 320.292 506.848 329.661 521.764 329.661 521.764L 303.236 548.423L 276.839 522.025C 276.839 522.025 286.174 506.848 303.232 506.848z"
             id="path111" />
          <path
             style="stroke:none; fill:#f8b370"
             d="M 303.232 506.979C 320.235 506.979 329.6 521.827 329.6 521.827L 303.236 548.423L 276.9 522.086C 276.9 522.086 286.231 506.979 303.232 506.979z"
             id="path112" />
          <path
             style="stroke:none; fill:#f8b471"
             d="M 303.232 507.11C 320.178 507.11 329.539 521.89 329.539 521.89L 303.236 548.423L 276.961 522.147C 276.961 522.147 286.288 507.11 303.232 507.11z"
             id="path113" />
          <path
             style="stroke:none; fill:#f8b473"
             d="M 303.232 507.241C 320.122 507.241 329.477 521.953 329.477 521.953L 303.236 548.423L 277.022 522.208C 277.022 522.208 286.344 507.241 303.232 507.241z"
             id="path114" />
          <path
             style="stroke:none; fill:#f8b574"
             d="M 303.232 507.372C 320.065 507.372 329.416 522.015 329.416 522.015L 303.236 548.423L 277.083 522.269C 277.083 522.269 286.401 507.372 303.232 507.372z"
             id="path115" />
          <path
             style="stroke:none; fill:#f8b675"
             d="M 303.232 507.504C 320.008 507.504 329.354 522.078 329.354 522.078L 303.236 548.423L 277.145 522.33C 277.145 522.33 286.457 507.504 303.232 507.504z"
             id="path116" />
          <path
             style="stroke:none; fill:#f8b677"
             d="M 303.232 507.634C 319.951 507.634 329.293 522.141 329.293 522.141L 303.236 548.423L 277.206 522.391C 277.206 522.391 286.514 507.634 303.232 507.634z"
             id="path117" />
          <path
             style="stroke:none; fill:#f8b778"
             d="M 303.232 507.765C 319.895 507.765 329.232 522.204 329.232 522.204L 303.236 548.423L 277.267 522.453C 277.267 522.453 286.571 507.765 303.232 507.765z"
             id="path118" />
          <path
             style="stroke:none; fill:#f8b779"
             d="M 303.232 507.897C 319.838 507.897 329.17 522.267 329.17 522.267L 303.236 548.423L 277.328 522.514C 277.328 522.514 286.627 507.897 303.232 507.897z"
             id="path119" />
          <path
             style="stroke:none; fill:#f8b879"
             d="M 303.232 508.027C 319.781 508.027 329.109 522.33 329.109 522.33L 303.236 548.423L 277.389 522.575C 277.389 522.575 286.684 508.027 303.232 508.027z"
             id="path120" />
          <path
             style="stroke:none; fill:#f8b87a"
             d="M 303.232 508.158C 319.725 508.158 329.048 522.392 329.048 522.392L 303.236 548.423L 277.45 522.636C 277.45 522.636 286.741 508.158 303.232 508.158z"
             id="path121" />
          <path
             style="stroke:none; fill:#f8b87a"
             d="M 303.232 508.29C 319.668 508.29 328.986 522.455 328.986 522.455L 303.236 548.423L 277.512 522.697C 277.512 522.697 286.797 508.29 303.232 508.29z"
             id="path122" />
          <path
             style="stroke:none; fill:#f8b87b"
             d="M 303.232 508.421C 319.611 508.421 328.925 522.518 328.925 522.518L 303.236 548.423L 277.573 522.758C 277.573 522.758 286.854 508.421 303.232 508.421z"
             id="path123" />
          <path
             style="stroke:none; fill:#f8b97c"
             d="M 303.232 508.551C 319.555 508.551 328.864 522.581 328.864 522.581L 303.236 548.423L 277.634 522.819C 277.634 522.819 286.911 508.551 303.232 508.551z"
             id="path124" />
          <path
             style="stroke:none; fill:#f8b97c"
             d="M 303.232 508.683C 319.498 508.683 328.802 522.644 328.802 522.644L 303.236 548.423L 277.695 522.881C 277.695 522.881 286.967 508.683 303.232 508.683z"
             id="path125" />
          <path
             style="stroke:none; fill:#f8ba7d"
             d="M 303.232 508.814C 319.441 508.814 328.741 522.707 328.741 522.707L 303.236 548.423L 277.756 522.942C 277.756 522.942 287.023 508.814 303.232 508.814z"
             id="path126" />
          <path
             style="stroke:none; fill:#f8ba7e"
             d="M 303.232 508.944C 319.384 508.944 328.68 522.769 328.68 522.769L 303.236 548.423L 277.817 523.003C 277.817 523.003 287.08 508.944 303.232 508.944z"
             id="path127" />
          <path
             style="stroke:none; fill:#f9bb80"
             d="M 303.232 509.076C 319.328 509.076 328.619 522.832 328.619 522.832L 303.236 548.423L 277.879 523.065C 277.879 523.065 287.137 509.076 303.232 509.076z"
             id="path128" />
          <path
             style="stroke:none; fill:#f9bc82"
             d="M 303.232 509.207C 319.271 509.207 328.557 522.895 328.557 522.895L 303.236 548.423L 277.94 523.126C 277.94 523.126 287.193 509.207 303.232 509.207z"
             id="path129" />
          <path
             style="stroke:none; fill:#f9bc83"
             d="M 303.232 509.338C 319.214 509.338 328.496 522.958 328.496 522.958L 303.236 548.423L 278.001 523.187C 278.001 523.187 287.25 509.338 303.232 509.338z"
             id="path130" />
          <path
             style="stroke:none; fill:#f9bc84"
             d="M 303.232 509.469C 319.158 509.469 328.435 523.021 328.435 523.021L 303.236 548.423L 278.062 523.248C 278.062 523.248 287.307 509.469 303.232 509.469z"
             id="path131" />
          <path
             style="stroke:none; fill:#f9bc85"
             d="M 303.232 509.6C 319.101 509.6 328.373 523.084 328.373 523.084L 303.236 548.423L 278.124 523.309C 278.124 523.309 287.363 509.6 303.232 509.6z"
             id="path132" />
          <path
             style="stroke:none; fill:#f9bd85"
             d="M 303.232 509.731C 319.044 509.731 328.311 523.146 328.311 523.146L 303.236 548.423L 278.185 523.37C 278.185 523.37 287.42 509.731 303.232 509.731z"
             id="path133" />
          <path
             style="stroke:none; fill:#f9bd85"
             d="M 303.232 509.862C 318.988 509.862 328.25 523.209 328.25 523.209L 303.236 548.423L 278.246 523.431C 278.246 523.431 287.477 509.862 303.232 509.862z"
             id="path134" />
          <path
             style="stroke:none; fill:#f9be86"
             d="M 303.231 509.993C 318.931 509.993 328.189 523.272 328.189 523.272L 303.236 548.423L 278.307 523.493C 278.307 523.493 287.533 509.993 303.231 509.993z"
             id="path135" />
          <path
             style="stroke:none; fill:#f9c087"
             d="M 303.231 510.124C 318.875 510.124 328.127 523.335 328.127 523.335L 303.236 548.423L 278.368 523.554C 278.368 523.554 287.59 510.124 303.231 510.124z"
             id="path136" />
          <path
             style="stroke:none; fill:#f9c087"
             d="M 303.231 510.255C 318.817 510.255 328.066 523.398 328.066 523.398L 303.236 548.423L 278.429 523.615C 278.429 523.615 287.647 510.255 303.231 510.255z"
             id="path137" />
          <path
             style="stroke:none; fill:#f9c188"
             d="M 303.231 510.386C 318.761 510.386 328.005 523.461 328.005 523.461L 303.236 548.423L 278.49 523.676C 278.49 523.676 287.703 510.386 303.231 510.386z"
             id="path138" />
          <path
             style="stroke:none; fill:#f9c189"
             d="M 303.231 510.517C 318.704 510.517 327.944 523.523 327.944 523.523L 303.236 548.423L 278.552 523.737C 278.552 523.737 287.76 510.517 303.231 510.517z"
             id="path139" />
          <path
             style="stroke:none; fill:#f9c28a"
             d="M 303.231 510.648C 318.647 510.648 327.882 523.586 327.882 523.586L 303.236 548.423L 278.613 523.798C 278.613 523.798 287.816 510.648 303.231 510.648z"
             id="path140" />
          <path
             style="stroke:none; fill:#f9c28b"
             d="M 303.231 510.779C 318.591 510.779 327.821 523.649 327.821 523.649L 303.236 548.423L 278.674 523.859C 278.674 523.859 287.873 510.779 303.231 510.779z"
             id="path141" />
          <path
             style="stroke:none; fill:#f9c28e"
             d="M 303.231 510.91C 318.534 510.91 327.76 523.712 327.76 523.712L 303.236 548.423L 278.735 523.921C 278.735 523.921 287.929 510.91 303.231 510.91z"
             id="path142" />
          <path
             style="stroke:none; fill:#f9c38f"
             d="M 303.231 511.041C 318.478 511.041 327.698 523.775 327.698 523.775L 303.236 548.423L 278.796 523.982C 278.796 523.982 287.986 511.041 303.231 511.041z"
             id="path143" />
          <path
             style="stroke:none; fill:#f9c490"
             d="M 303.231 511.172C 318.421 511.172 327.637 523.838 327.637 523.838L 303.236 548.423L 278.857 524.043C 278.857 524.043 288.043 511.172 303.231 511.172z"
             id="path144" />
          <path
             style="stroke:none; fill:#f9c491"
             d="M 303.231 511.303C 318.364 511.303 327.576 523.9 327.576 523.9L 303.236 548.423L 278.919 524.105C 278.919 524.105 288.099 511.303 303.231 511.303z"
             id="path145" />
          <path
             style="stroke:none; fill:#f9c592"
             d="M 303.231 511.434C 318.308 511.434 327.514 523.963 327.514 523.963L 303.236 548.423L 278.98 524.166C 278.98 524.166 288.156 511.434 303.231 511.434z"
             id="path146" />
          <path
             style="stroke:none; fill:#f9c592"
             d="M 303.231 511.565C 318.25 511.565 327.453 524.026 327.453 524.026L 303.236 548.423L 279.041 524.227C 279.041 524.227 288.212 511.565 303.231 511.565z"
             id="path147" />
          <path
             style="stroke:none; fill:#fac592"
             d="M 303.231 511.696C 318.194 511.696 327.392 524.089 327.392 524.089L 303.236 548.423L 279.102 524.288C 279.102 524.288 288.269 511.696 303.231 511.696z"
             id="path148" />
          <path
             style="stroke:none; fill:#fac593"
             d="M 303.231 511.827C 318.137 511.827 327.33 524.151 327.33 524.151L 303.236 548.423L 279.164 524.349C 279.164 524.349 288.326 511.827 303.231 511.827z"
             id="path149" />
          <path
             style="stroke:none; fill:#fac593"
             d="M 303.231 511.958C 318.081 511.958 327.269 524.214 327.269 524.214L 303.236 548.423L 279.225 524.41C 279.225 524.41 288.382 511.958 303.231 511.958z"
             id="path150" />
          <path
             style="stroke:none; fill:#fac695"
             d="M 303.231 512.089C 318.024 512.089 327.207 524.277 327.207 524.277L 303.236 548.423L 279.286 524.471C 279.286 524.471 288.439 512.089 303.231 512.089z"
             id="path151" />
          <path
             style="stroke:none; fill:#fac695"
             d="M 303.231 512.22C 317.967 512.22 327.146 524.34 327.146 524.34L 303.236 548.423L 279.347 524.533C 279.347 524.533 288.496 512.22 303.231 512.22z"
             id="path152" />
          <path
             style="stroke:none; fill:#fac796"
             d="M 303.231 512.351C 317.911 512.351 327.085 524.403 327.085 524.403L 303.236 548.423L 279.408 524.594C 279.408 524.594 288.552 512.351 303.231 512.351z"
             id="path153" />
          <path
             style="stroke:none; fill:#fac797"
             d="M 303.231 512.482C 317.854 512.482 327.023 524.465 327.023 524.465L 303.236 548.423L 279.469 524.655C 279.469 524.655 288.609 512.482 303.231 512.482z"
             id="path154" />
          <path
             style="stroke:none; fill:#fac89a"
             d="M 303.231 512.613C 317.797 512.613 326.962 524.528 326.962 524.528L 303.236 548.423L 279.53 524.716C 279.53 524.716 288.665 512.613 303.231 512.613z"
             id="path155" />
          <path
             style="stroke:none; fill:#fac99b"
             d="M 303.231 512.744C 317.741 512.744 326.901 524.591 326.901 524.591L 303.236 548.423L 279.592 524.777C 279.592 524.777 288.722 512.744 303.231 512.744z"
             id="path156" />
          <path
             style="stroke:none; fill:#fac99c"
             d="M 303.231 512.875C 317.684 512.875 326.839 524.654 326.839 524.654L 303.236 548.423L 279.653 524.839C 279.653 524.839 288.779 512.875 303.231 512.875z"
             id="path157" />
          <path
             style="stroke:none; fill:#faca9d"
             d="M 303.231 513.006C 317.627 513.006 326.778 524.717 326.778 524.717L 303.236 548.423L 279.714 524.9C 279.714 524.9 288.835 513.006 303.231 513.006z"
             id="path158" />
          <path
             style="stroke:none; fill:#faca9d"
             d="M 303.231 513.137C 317.57 513.137 326.717 524.78 326.717 524.78L 303.236 548.423L 279.775 524.961C 279.775 524.961 288.892 513.137 303.231 513.137z"
             id="path159" />
          <path
             style="stroke:none; fill:#facc9e"
             d="M 303.231 513.268C 317.514 513.268 326.655 524.842 326.655 524.842L 303.236 548.423L 279.836 525.022C 279.836 525.022 288.948 513.268 303.231 513.268z"
             id="path160" />
          <path
             style="stroke:none; fill:#facc9f"
             d="M 303.231 513.399C 317.457 513.399 326.594 524.905 326.594 524.905L 303.236 548.423L 279.897 525.083C 279.897 525.083 289.005 513.399 303.231 513.399z"
             id="path161" />
          <path
             style="stroke:none; fill:#facc9f"
             d="M 303.231 513.53C 317.4 513.53 326.533 524.968 326.533 524.968L 303.236 548.423L 279.959 525.145C 279.959 525.145 289.061 513.53 303.231 513.53z"
             id="path162" />
          <path
             style="stroke:none; fill:#facda0"
             d="M 303.23 513.661C 317.344 513.661 326.471 525.031 326.471 525.031L 303.236 548.423L 280.02 525.206C 280.02 525.206 289.118 513.661 303.23 513.661z"
             id="path163" />
          <path
             style="stroke:none; fill:#fbcea1"
             d="M 303.23 513.792C 317.287 513.792 326.41 525.094 326.41 525.094L 303.236 548.423L 280.081 525.267C 280.081 525.267 289.175 513.792 303.23 513.792z"
             id="path164" />
          <path
             style="stroke:none; fill:#fbcea1"
             d="M 303.23 513.923C 317.23 513.923 326.349 525.157 326.349 525.157L 303.236 548.423L 280.142 525.328C 280.142 525.328 289.231 513.923 303.23 513.923z"
             id="path165" />
          <path
             style="stroke:none; fill:#fbcfa2"
             d="M 303.23 514.054C 317.174 514.054 326.287 525.219 326.287 525.219L 303.236 548.423L 280.204 525.389C 280.204 525.389 289.288 514.054 303.23 514.054z"
             id="path166" />
          <path
             style="stroke:none; fill:#fbcfa3"
             d="M 303.23 514.185C 317.117 514.185 326.226 525.282 326.226 525.282L 303.236 548.423L 280.265 525.45C 280.265 525.45 289.345 514.185 303.23 514.185z"
             id="path167" />
          <path
             style="stroke:none; fill:#fbd0a6"
             d="M 303.23 514.317C 317.06 514.317 326.165 525.345 326.165 525.345L 303.236 548.423L 280.326 525.511C 280.326 525.511 289.401 514.317 303.23 514.317z"
             id="path168" />
          <path
             style="stroke:none; fill:#fbd0a7"
             d="M 303.23 514.447C 317.003 514.447 326.103 525.408 326.103 525.408L 303.236 548.423L 280.387 525.573C 280.387 525.573 289.458 514.447 303.23 514.447z"
             id="path169" />
          <path
             style="stroke:none; fill:#fbd1a8"
             d="M 303.23 514.578C 316.947 514.578 326.042 525.471 326.042 525.471L 303.236 548.423L 280.448 525.634C 280.448 525.634 289.515 514.578 303.23 514.578z"
             id="path170" />
          <path
             style="stroke:none; fill:#fbd1a9"
             d="M 303.23 514.71C 316.89 514.71 325.98 525.534 325.98 525.534L 303.236 548.423L 280.509 525.695C 280.509 525.695 289.571 514.71 303.23 514.71z"
             id="path171" />
          <path
             style="stroke:none; fill:#fbd1a9"
             d="M 303.23 514.84C 316.833 514.84 325.919 525.596 325.919 525.596L 303.236 548.423L 280.57 525.756C 280.57 525.756 289.628 514.84 303.23 514.84z"
             id="path172" />
          <path
             style="stroke:none; fill:#fbd2aa"
             d="M 303.23 514.971C 316.777 514.971 325.858 525.659 325.858 525.659L 303.236 548.423L 280.632 525.818C 280.632 525.818 289.685 514.971 303.23 514.971z"
             id="path173" />
          <path
             style="stroke:none; fill:#fbd2aa"
             d="M 303.23 515.103C 316.72 515.103 325.796 525.722 325.796 525.722L 303.236 548.423L 280.693 525.879C 280.693 525.879 289.741 515.103 303.23 515.103z"
             id="path174" />
          <path
             style="stroke:none; fill:#fbd2ab"
             d="M 303.23 515.233C 316.664 515.233 325.735 525.785 325.735 525.785L 303.236 548.423L 280.754 525.94C 280.754 525.94 289.798 515.233 303.23 515.233z"
             id="path175" />
          <path
             style="stroke:none; fill:#fbd3ac"
             d="M 303.23 515.364C 316.607 515.364 325.674 525.848 325.674 525.848L 303.236 548.423L 280.815 526.001C 280.815 526.001 289.854 515.364 303.23 515.364z"
             id="path176" />
          <path
             style="stroke:none; fill:#fbd3ac"
             d="M 303.23 515.496C 316.55 515.496 325.612 525.911 325.612 525.911L 303.236 548.423L 280.876 526.062C 280.876 526.062 289.911 515.496 303.23 515.496z"
             id="path177" />
          <path
             style="stroke:none; fill:#fbd4ad"
             d="M 303.23 515.627C 316.494 515.627 325.551 525.973 325.551 525.973L 303.236 548.423L 280.938 526.123C 280.938 526.123 289.967 515.627 303.23 515.627z"
             id="path178" />
          <path
             style="stroke:none; fill:#fbd4ae"
             d="M 303.23 515.757C 316.436 515.757 325.49 526.036 325.49 526.036L 303.236 548.423L 280.999 526.185C 280.999 526.185 290.024 515.757 303.23 515.757z"
             id="path179" />
          <path
             style="stroke:none; fill:#fbd4b0"
             d="M 303.23 515.889C 316.38 515.889 325.429 526.099 325.429 526.099L 303.236 548.423L 281.06 526.246C 281.06 526.246 290.081 515.889 303.23 515.889z"
             id="path180" />
          <path
             style="stroke:none; fill:#fbd5b1"
             d="M 303.23 516.02C 316.323 516.02 325.367 526.162 325.367 526.162L 303.236 548.423L 281.121 526.307C 281.121 526.307 290.137 516.02 303.23 516.02z"
             id="path181" />
          <path
             style="stroke:none; fill:#fbd5b3"
             d="M 303.23 516.151C 316.267 516.151 325.306 526.225 325.306 526.225L 303.236 548.423L 281.182 526.368C 281.182 526.368 290.194 516.151 303.23 516.151z"
             id="path182" />
          <path
             style="stroke:none; fill:#fcd6b4"
             d="M 303.23 516.282C 316.21 516.282 325.245 526.288 325.245 526.288L 303.236 548.423L 281.244 526.429C 281.244 526.429 290.25 516.282 303.23 516.282z"
             id="path183" />
          <path
             style="stroke:none; fill:#fcd6b4"
             d="M 303.23 516.413C 316.153 516.413 325.183 526.35 325.183 526.35L 303.236 548.423L 281.305 526.49C 281.305 526.49 290.307 516.413 303.23 516.413z"
             id="path184" />
          <path
             style="stroke:none; fill:#fcd7b5"
             d="M 303.23 516.544C 316.097 516.544 325.122 526.413 325.122 526.413L 303.236 548.423L 281.366 526.551C 281.366 526.551 290.364 516.544 303.23 516.544z"
             id="path185" />
          <path
             style="stroke:none; fill:#fcd9b6"
             d="M 303.23 516.675C 316.04 516.675 325.06 526.476 325.06 526.476L 303.236 548.423L 281.427 526.613C 281.427 526.613 290.42 516.675 303.23 516.675z"
             id="path186" />
          <path
             style="stroke:none; fill:#fcd9b6"
             d="M 303.23 516.806C 315.983 516.806 324.999 526.539 324.999 526.539L 303.236 548.423L 281.488 526.674C 281.488 526.674 290.477 516.806 303.23 516.806z"
             id="path187" />
          <path
             style="stroke:none; fill:#fcd9b7"
             d="M 303.23 516.937C 315.927 516.937 324.938 526.602 324.938 526.602L 303.236 548.423L 281.549 526.735C 281.549 526.735 290.534 516.937 303.23 516.937z"
             id="path188" />
          <path
             style="stroke:none; fill:#fcdab8"
             d="M 303.23 517.068C 315.87 517.068 324.876 526.665 324.876 526.665L 303.236 548.423L 281.61 526.796C 281.61 526.796 290.59 517.068 303.23 517.068z"
             id="path189" />
          <path
             style="stroke:none; fill:#fcdab8"
             d="M 303.23 517.199C 315.813 517.199 324.815 526.727 324.815 526.727L 303.236 548.423L 281.672 526.858C 281.672 526.858 290.647 517.199 303.23 517.199z"
             id="path190" />
          <path
             style="stroke:none; fill:#fcdbb9"
             d="M 303.23 517.33C 315.756 517.33 324.754 526.79 324.754 526.79L 303.236 548.423L 281.733 526.919C 281.733 526.919 290.704 517.33 303.23 517.33z"
             id="path191" />
          <path
             style="stroke:none; fill:#fcdbba"
             d="M 303.229 517.461C 315.7 517.461 324.692 526.853 324.692 526.853L 303.236 548.423L 281.794 526.98C 281.794 526.98 290.76 517.461 303.229 517.461z"
             id="path192" />
          <path
             style="stroke:none; fill:#fcdcbb"
             d="M 303.229 517.592C 315.643 517.592 324.631 526.916 324.631 526.916L 303.236 548.423L 281.855 527.041C 281.855 527.041 290.816 517.592 303.229 517.592z"
             id="path193" />
          <path
             style="stroke:none; fill:#fcddbc"
             d="M 303.229 517.723C 315.586 517.723 324.57 526.979 324.57 526.979L 303.236 548.423L 281.917 527.102C 281.917 527.102 290.873 517.723 303.229 517.723z"
             id="path194" />
          <path
             style="stroke:none; fill:#fcddbd"
             d="M 303.229 517.854C 315.53 517.854 324.508 527.042 324.508 527.042L 303.236 548.423L 281.978 527.163C 281.978 527.163 290.93 517.854 303.229 517.854z"
             id="path195" />
          <path
             style="stroke:none; fill:#fcddbe"
             d="M 303.229 517.985C 315.473 517.985 324.447 527.104 324.447 527.104L 303.236 548.423L 282.039 527.225C 282.039 527.225 290.986 517.985 303.229 517.985z"
             id="path196" />
          <path
             style="stroke:none; fill:#fcddc0"
             d="M 303.229 518.116C 315.417 518.116 324.386 527.167 324.386 527.167L 303.236 548.423L 282.1 527.286C 282.1 527.286 291.043 518.116 303.229 518.116z"
             id="path197" />
          <path
             style="stroke:none; fill:#fcdec1"
             d="M 303.229 518.247C 315.36 518.247 324.324 527.23 324.324 527.23L 303.236 548.423L 282.161 527.347C 282.161 527.347 291.1 518.247 303.229 518.247z"
             id="path198" />
          <path
             style="stroke:none; fill:#fcdec1"
             d="M 303.229 518.378C 315.303 518.378 324.263 527.293 324.263 527.293L 303.236 548.423L 282.222 527.408C 282.222 527.408 291.156 518.378 303.229 518.378z"
             id="path199" />
          <path
             style="stroke:none; fill:#fcdfc2"
             d="M 303.229 518.509C 315.246 518.509 324.202 527.356 324.202 527.356L 303.236 548.423L 282.284 527.469C 282.284 527.469 291.213 518.509 303.229 518.509z"
             id="path200" />
          <path
             style="stroke:none; fill:#fcdfc3"
             d="M 303.229 518.64C 315.19 518.64 324.14 527.419 324.14 527.419L 303.236 548.423L 282.345 527.53C 282.345 527.53 291.27 518.64 303.229 518.64z"
             id="path201" />
          <path
             style="stroke:none; fill:#fcdfc3"
             d="M 303.229 518.771C 315.133 518.771 324.079 527.481 324.079 527.481L 303.236 548.423L 282.406 527.591C 282.406 527.591 291.326 518.771 303.229 518.771z"
             id="path202" />
          <path
             style="stroke:none; fill:#fce0c4"
             d="M 303.229 518.902C 315.076 518.902 324.018 527.544 324.018 527.544L 303.236 548.423L 282.467 527.653C 282.467 527.653 291.383 518.902 303.229 518.902z"
             id="path203" />
          <path
             style="stroke:none; fill:#fce0c5"
             d="M 303.229 519.033C 315.02 519.033 323.956 527.607 323.956 527.607L 303.236 548.423L 282.528 527.714C 282.528 527.714 291.44 519.033 303.229 519.033z"
             id="path204" />
          <path
             style="stroke:none; fill:#fce0c5"
             d="M 303.229 519.164C 314.963 519.164 323.895 527.67 323.895 527.67L 303.236 548.423L 282.589 527.775C 282.589 527.775 291.496 519.164 303.229 519.164z"
             id="path205" />
          <path
             style="stroke:none; fill:#fce1c7"
             d="M 303.229 519.295C 314.906 519.295 323.833 527.733 323.833 527.733L 303.236 548.423L 282.65 527.836C 282.65 527.836 291.553 519.295 303.229 519.295z"
             id="path206" />
          <path
             style="stroke:none; fill:#fce1c8"
             d="M 303.229 519.426C 314.85 519.426 323.772 527.796 323.772 527.796L 303.236 548.423L 282.712 527.898C 282.712 527.898 291.609 519.426 303.229 519.426z"
             id="path207" />
          <path
             style="stroke:none; fill:#fde2c9"
             d="M 303.229 519.557C 314.793 519.557 323.711 527.858 323.711 527.858L 303.236 548.423L 282.773 527.959C 282.773 527.959 291.666 519.557 303.229 519.557z"
             id="path208" />
          <path
             style="stroke:none; fill:#fde3ca"
             d="M 303.229 519.688C 314.736 519.688 323.649 527.921 323.649 527.921L 303.236 548.423L 282.834 528.02C 282.834 528.02 291.723 519.688 303.229 519.688z"
             id="path209" />
          <path
             style="stroke:none; fill:#fde3ca"
             d="M 303.229 519.819C 314.68 519.819 323.588 527.984 323.588 527.984L 303.236 548.423L 282.896 528.081C 282.896 528.081 291.779 519.819 303.229 519.819z"
             id="path210" />
          <path
             style="stroke:none; fill:#fde3cc"
             d="M 303.229 519.95C 314.623 519.95 323.527 528.047 323.527 528.047L 303.236 548.423L 282.957 528.142C 282.957 528.142 291.835 519.95 303.229 519.95z"
             id="path211" />
          <path
             style="stroke:none; fill:#fde4cc"
             d="M 303.229 520.081C 314.566 520.081 323.465 528.109 323.465 528.109L 303.236 548.423L 283.018 528.203C 283.018 528.203 291.892 520.081 303.229 520.081z"
             id="path212" />
          <path
             style="stroke:none; fill:#fde4ce"
             d="M 303.229 520.213C 314.509 520.213 323.404 528.172 323.404 528.172L 303.236 548.423L 283.079 528.265C 283.079 528.265 291.949 520.213 303.229 520.213z"
             id="path213" />
          <path
             style="stroke:none; fill:#fde6cf"
             d="M 303.229 520.343C 314.453 520.343 323.343 528.235 323.343 528.235L 303.236 548.423L 283.14 528.326C 283.14 528.326 292.005 520.343 303.229 520.343z"
             id="path214" />
          <path
             style="stroke:none; fill:#fde6cf"
             d="M 303.229 520.474C 314.396 520.474 323.281 528.298 323.281 528.298L 303.236 548.423L 283.201 528.387C 283.201 528.387 292.062 520.474 303.229 520.474z"
             id="path215" />
          <path
             style="stroke:none; fill:#fde7d0"
             d="M 303.229 520.606C 314.339 520.606 323.22 528.361 323.22 528.361L 303.236 548.423L 283.262 528.448C 283.262 528.448 292.119 520.606 303.229 520.606z"
             id="path216" />
          <path
             style="stroke:none; fill:#fde7d1"
             d="M 303.229 520.736C 314.283 520.736 323.159 528.423 323.159 528.423L 303.236 548.423L 283.324 528.509C 283.324 528.509 292.175 520.736 303.229 520.736z"
             id="path217" />
          <path
             style="stroke:none; fill:#fde8d2"
             d="M 303.229 520.867C 314.226 520.867 323.097 528.486 323.097 528.486L 303.236 548.423L 283.385 528.57C 283.385 528.57 292.232 520.867 303.229 520.867z"
             id="path218" />
          <path
             style="stroke:none; fill:#fde8d2"
             d="M 303.229 520.999C 314.169 520.999 323.036 528.549 323.036 528.549L 303.236 548.423L 283.446 528.631C 283.446 528.631 292.289 520.999 303.229 520.999z"
             id="path219" />
          <path
             style="stroke:none; fill:#fde9d3"
             d="M 303.228 521.129C 314.113 521.129 322.975 528.612 322.975 528.612L 303.236 548.423L 283.507 528.693C 283.507 528.693 292.345 521.129 303.228 521.129z"
             id="path220" />
          <path
             style="stroke:none; fill:#fde9d4"
             d="M 303.228 521.26C 314.056 521.26 322.913 528.675 322.913 528.675L 303.236 548.423L 283.568 528.754C 283.568 528.754 292.402 521.26 303.228 521.26z"
             id="path221" />
          <path
             style="stroke:none; fill:#fde9d5"
             d="M 303.228 521.392C 313.999 521.392 322.852 528.738 322.852 528.738L 303.236 548.423L 283.629 528.815C 283.629 528.815 292.458 521.392 303.228 521.392z"
             id="path222" />
          <path
             style="stroke:none; fill:#fdead6"
             d="M 303.228 521.523C 313.942 521.523 322.79 528.8 322.79 528.8L 303.236 548.423L 283.69 528.876C 283.69 528.876 292.515 521.523 303.228 521.523z"
             id="path223" />
          <path
             style="stroke:none; fill:#fdead7"
             d="M 303.228 521.653C 313.886 521.653 322.729 528.863 322.729 528.863L 303.236 548.423L 283.752 528.938C 283.752 528.938 292.572 521.653 303.228 521.653z"
             id="path224" />
          <path
             style="stroke:none; fill:#fdebd9"
             d="M 303.228 521.785C 313.829 521.785 322.668 528.926 322.668 528.926L 303.236 548.423L 283.813 528.999C 283.813 528.999 292.628 521.785 303.228 521.785z"
             id="path225" />
          <path
             style="stroke:none; fill:#fdebd9"
             d="M 303.228 521.916C 313.772 521.916 322.606 528.989 322.606 528.989L 303.236 548.423L 283.874 529.06C 283.874 529.06 292.685 521.916 303.228 521.916z"
             id="path226" />
          <path
             style="stroke:none; fill:#fdebda"
             d="M 303.228 522.047C 313.716 522.047 322.545 529.052 322.545 529.052L 303.236 548.423L 283.935 529.121C 283.935 529.121 292.741 522.047 303.228 522.047z"
             id="path227" />
          <path
             style="stroke:none; fill:#fdebdb"
             d="M 303.228 522.177C 313.659 522.177 322.484 529.115 322.484 529.115L 303.236 548.423L 283.997 529.182C 283.997 529.182 292.798 522.177 303.228 522.177z"
             id="path228" />
          <path
             style="stroke:none; fill:#fdecdc"
             d="M 303.228 522.309C 313.603 522.309 322.422 529.177 322.422 529.177L 303.236 548.423L 284.058 529.243C 284.058 529.243 292.854 522.309 303.228 522.309z"
             id="path229" />
          <path
             style="stroke:none; fill:#fdecdc"
             d="M 303.228 522.44C 313.546 522.44 322.361 529.24 322.361 529.24L 303.236 548.423L 284.119 529.305C 284.119 529.305 292.911 522.44 303.228 522.44z"
             id="path230" />
          <path
             style="stroke:none; fill:#fdedde"
             d="M 303.228 522.57C 313.489 522.57 322.3 529.303 322.3 529.303L 303.236 548.423L 284.18 529.366C 284.18 529.366 292.968 522.57 303.228 522.57z"
             id="path231" />
          <path
             style="stroke:none; fill:#fdeddf"
             d="M 303.228 522.702C 313.432 522.702 322.239 529.366 322.239 529.366L 303.236 548.423L 284.241 529.427C 284.241 529.427 293.024 522.702 303.228 522.702z"
             id="path232" />
          <path
             style="stroke:none; fill:#ffeedf"
             d="M 303.228 522.833C 313.375 522.833 322.177 529.429 322.177 529.429L 303.236 548.423L 284.302 529.488C 284.302 529.488 293.081 522.833 303.228 522.833z"
             id="path233" />
          <path
             style="stroke:none; fill:#ffefe0"
             d="M 303.228 522.964C 313.319 522.964 322.116 529.492 322.116 529.492L 303.236 548.423L 284.364 529.549C 284.364 529.549 293.138 522.964 303.228 522.964z"
             id="path234" />
          <path
             style="stroke:none; fill:#ffefe1"
             d="M 303.228 523.095C 313.262 523.095 322.055 529.554 322.055 529.554L 303.236 548.423L 284.425 529.61C 284.425 529.61 293.194 523.095 303.228 523.095z"
             id="path235" />
          <path
             style="stroke:none; fill:#ffefe2"
             d="M 303.228 523.226C 313.206 523.226 321.993 529.617 321.993 529.617L 303.236 548.423L 284.486 529.672C 284.486 529.672 293.251 523.226 303.228 523.226z"
             id="path236" />
          <path
             style="stroke:none; fill:#ffefe2"
             d="M 303.228 523.357C 313.149 523.357 321.932 529.68 321.932 529.68L 303.236 548.423L 284.547 529.733C 284.547 529.733 293.308 523.357 303.228 523.357z"
             id="path237" />
          <path
             style="stroke:none; fill:#fff0e3"
             d="M 303.228 523.488C 313.092 523.488 321.871 529.743 321.871 529.743L 303.236 548.423L 284.608 529.794C 284.608 529.794 293.364 523.488 303.228 523.488z"
             id="path238" />
          <path
             style="stroke:none; fill:#fff0e3"
             d="M 303.228 523.619C 313.036 523.619 321.809 529.806 321.809 529.806L 303.236 548.423L 284.669 529.855C 284.669 529.855 293.421 523.619 303.228 523.619z"
             id="path239" />
          <path
             style="stroke:none; fill:#fff1e4"
             d="M 303.228 523.75C 312.979 523.75 321.748 529.869 321.748 529.869L 303.236 548.423L 284.73 529.916C 284.73 529.916 293.478 523.75 303.228 523.75z"
             id="path240" />
          <path
             style="stroke:none; fill:#fff3e6"
             d="M 303.228 523.881C 312.922 523.881 321.686 529.931 321.686 529.931L 303.236 548.423L 284.792 529.978C 284.792 529.978 293.534 523.881 303.228 523.881z"
             id="path241" />
          <path
             style="stroke:none; fill:#fff3e7"
             d="M 303.228 524.012C 312.866 524.012 321.625 529.994 321.625 529.994L 303.236 548.423L 284.853 530.039C 284.853 530.039 293.591 524.012 303.228 524.012z"
             id="path242" />
          <path
             style="stroke:none; fill:#fff3e8"
             d="M 303.228 524.143C 312.809 524.143 321.564 530.057 321.564 530.057L 303.236 548.423L 284.914 530.1C 284.914 530.1 293.647 524.143 303.228 524.143z"
             id="path243" />
          <path
             style="stroke:none; fill:#fff4ea"
             d="M 303.228 524.274C 312.752 524.274 321.502 530.12 321.502 530.12L 303.236 548.423L 284.976 530.161C 284.976 530.161 293.704 524.274 303.228 524.274z"
             id="path244" />
          <path
             style="stroke:none; fill:#fff4eb"
             d="M 303.228 524.405C 312.695 524.405 321.441 530.183 321.441 530.183L 303.236 548.423L 285.037 530.222C 285.037 530.222 293.76 524.405 303.228 524.405z"
             id="path245" />
          <path
             style="stroke:none; fill:#fff5eb"
             d="M 303.228 524.536C 312.639 524.536 321.38 530.246 321.38 530.246L 303.236 548.423L 285.098 530.283C 285.098 530.283 293.817 524.536 303.228 524.536z"
             id="path246" />
          <path
             style="stroke:none; fill:#fff5eb"
             d="M 303.228 524.667C 312.582 524.667 321.318 530.308 321.318 530.308L 303.236 548.423L 285.159 530.345C 285.159 530.345 293.874 524.667 303.228 524.667z"
             id="path247" />
          <path
             style="stroke:none; fill:#fff6ec"
             d="M 303.228 524.798C 312.525 524.798 321.257 530.371 321.257 530.371L 303.236 548.423L 285.22 530.406C 285.22 530.406 293.93 524.798 303.228 524.798z"
             id="path248" />
          <path
             style="stroke:none; fill:#fff7ed"
             d="M 303.228 524.929C 312.469 524.929 321.196 530.434 321.196 530.434L 303.236 548.423L 285.281 530.467C 285.281 530.467 293.987 524.929 303.228 524.929z"
             id="path249" />
          <path
             style="stroke:none; fill:#fff7ed"
             d="M 303.228 525.06C 312.412 525.06 321.134 530.497 321.134 530.497L 303.236 548.423L 285.342 530.528C 285.342 530.528 294.043 525.06 303.228 525.06z"
             id="path250" />
          <path
             style="stroke:none; fill:#fff7ee"
             d="M 303.228 525.191C 312.355 525.191 321.073 530.56 321.073 530.56L 303.236 548.423L 285.404 530.589C 285.404 530.589 294.1 525.191 303.228 525.191z"
             id="path251" />
          <path
             style="stroke:none; fill:#fff7ef"
             d="M 303.228 525.322C 312.299 525.322 321.012 530.623 321.012 530.623L 303.236 548.423L 285.465 530.651C 285.465 530.651 294.157 525.322 303.228 525.322z"
             id="path252" />
          <path
             style="stroke:none; fill:#fff8f0"
             d="M 303.228 525.453C 312.242 525.453 320.95 530.685 320.95 530.685L 303.236 548.423L 285.526 530.712C 285.526 530.712 294.213 525.453 303.228 525.453z"
             id="path253" />
          <path
             style="stroke:none; fill:#fff8f1"
             d="M 303.228 525.584C 312.185 525.584 320.889 530.748 320.889 530.748L 303.236 548.423L 285.587 530.773C 285.587 530.773 294.27 525.584 303.228 525.584z"
             id="path254" />
          <path
             style="stroke:none; fill:#fff8f3"
             d="M 303.228 525.715C 312.128 525.715 320.828 530.811 320.828 530.811L 303.236 548.423L 285.648 530.834C 285.648 530.834 294.327 525.715 303.228 525.715z"
             id="path255" />
          <path
             style="stroke:none; fill:#fff9f4"
             d="M 303.228 525.846C 312.072 525.846 320.766 530.874 320.766 530.874L 303.236 548.423L 285.71 530.895C 285.71 530.895 294.383 525.846 303.228 525.846z"
             id="path256" />
          <path
             style="stroke:none; fill:#fff9f5"
             d="M 303.228 525.977C 312.015 525.977 320.705 530.937 320.705 530.937L 303.236 548.423L 285.771 530.956C 285.771 530.956 294.44 525.977 303.228 525.977z"
             id="path257" />
          <path
             style="stroke:none; fill:#fff9f6"
             d="M 303.228 526.108C 311.958 526.108 320.644 531 320.644 531L 303.236 548.423L 285.832 531.018C 285.832 531.018 294.497 526.108 303.228 526.108z"
             id="path258" />
          <path
             style="stroke:none; fill:#fff9f7"
             d="M 303.228 526.239C 311.902 526.239 320.582 531.062 320.582 531.062L 303.236 548.423L 285.893 531.079C 285.893 531.079 294.553 526.239 303.228 526.239z"
             id="path259" />
          <path
             style="stroke:none; fill:#fffaf8"
             d="M 303.228 526.37C 311.845 526.37 320.521 531.125 320.521 531.125L 303.236 548.423L 285.954 531.14C 285.954 531.14 294.61 526.37 303.228 526.37z"
             id="path260" />
          <path
             style="stroke:none; fill:#fffbf8"
             d="M 303.228 526.501C 311.789 526.501 320.46 531.188 320.46 531.188L 303.236 548.423L 286.016 531.201C 286.016 531.201 294.666 526.501 303.228 526.501z"
             id="path261" />
          <path
             style="stroke:none; fill:#fffbf9"
             d="M 303.227 526.632C 311.732 526.632 320.398 531.251 320.398 531.251L 303.236 548.423L 286.077 531.262C 286.077 531.262 294.723 526.632 303.227 526.632z"
             id="path262" />
          <path
             style="stroke:none; fill:#fffcfa"
             d="M 303.227 526.763C 311.675 526.763 320.337 531.314 320.337 531.314L 303.236 548.423L 286.138 531.323C 286.138 531.323 294.779 526.763 303.227 526.763z"
             id="path263" />
          <path
             style="stroke:none; fill:#fffcfa"
             d="M 303.227 526.894C 311.618 526.894 320.275 531.377 320.275 531.377L 303.236 548.423L 286.199 531.385C 286.199 531.385 294.836 526.894 303.227 526.894z"
             id="path264" />
          <path
             style="stroke:none; fill:#fffcfb"
             d="M 303.227 527.026C 311.561 527.026 320.214 531.439 320.214 531.439L 303.236 548.423L 286.26 531.446C 286.26 531.446 294.893 527.026 303.227 527.026z"
             id="path265" />
          <path
             style="stroke:none; fill:#fffdfc"
             d="M 303.227 527.156C 311.505 527.156 320.153 531.502 320.153 531.502L 303.236 548.423L 286.321 531.507C 286.321 531.507 294.949 527.156 303.227 527.156z"
             id="path266" />
          <path
             style="stroke:none; fill:#fffdfc"
             d="M 303.227 527.287C 311.448 527.287 320.091 531.565 320.091 531.565L 303.236 548.423L 286.382 531.568C 286.382 531.568 295.006 527.287 303.227 527.287z"
             id="path267" />
          <path
             style="stroke:none; fill:#fffffd"
             d="M 303.227 527.419C 311.392 527.419 320.03 531.628 320.03 531.628L 303.236 548.423L 286.444 531.629C 286.444 531.629 295.062 527.419 303.227 527.419z"
             id="path268" />
          <path
             style="stroke:none; fill:#ffffff"
             d="M 319.969 531.691C 319.969 531.691 311.335 527.549 303.227 527.549C 295.119 527.549 286.505 531.691 286.505 531.691L 303.236 548.423L 319.969 531.691z"
             id="path269" />
        </g>
        <path
           style="stroke:none; fill:#6e6f70"
           d="M 291.599 536.794L 303.231 548.423L 340.51 511.152C 321.191 516.793 305.006 524.516 291.599 536.794z"
           id="path270" />
      </g>
      <g
         id="g280">
        <path
           style="stroke:none; fill:#6e6f70"
           d="M 353.794 529.238C 353.833 531.284 354.958 532.047 356.805 532.047C 358.368 532.047 360.274 531.566 360.274 529.539C 360.274 528.135 359.169 527.554 358.025 527.314C 355.758 526.792 351.984 526.25 351.984 523C 351.984 519.852 354.709 518.689 357.283 518.689C 359.626 518.689 361.931 519.792 361.931 522.6L 359.93 522.6C 359.854 520.975 358.558 520.413 357.186 520.413C 355.833 520.413 353.985 520.935 353.985 522.66C 353.985 524.305 355.091 524.404 356.29 524.806C 358.825 525.668 362.275 525.668 362.275 529.319C 362.275 532.609 359.473 533.772 356.691 533.772C 353.814 533.772 351.718 532.488 351.794 529.238L 353.794 529.238z"
           id="path271" />
        <path
           style="stroke:none; fill:#6e6f70"
           d="M 369.4 527.254C 369.4 525.509 369.305 524.485 367.381 524.485C 366.466 524.485 365.609 525.046 365.589 526.09L 363.684 526.09C 363.779 523.883 365.418 523.101 367.305 523.101C 369.268 523.101 371.21 523.723 371.21 526.531L 371.21 531.346C 371.21 531.786 371.229 532.629 371.287 533.47L 370.067 533.47C 369.896 533.47 369.573 533.57 369.553 533.33C 369.516 532.87 369.478 532.427 369.457 531.966L 369.42 531.966C 368.829 533.23 367.762 533.772 366.447 533.772C 364.789 533.772 363.113 532.87 363.113 530.904C 363.113 528.075 365.495 527.254 367.762 527.254L 369.4 527.254zM 367.591 528.577C 366.485 528.636 365.018 529.058 365.018 530.522C 365.018 531.765 365.837 532.388 366.904 532.388C 369.039 532.388 369.439 530.443 369.4 528.577L 367.591 528.577z"
           id="path272" />
        <path
           style="stroke:none; fill:#6e6f70"
           d="M 374.812 524.846L 374.851 524.846C 375.422 523.583 376.604 523.101 377.575 523.101C 379.386 523.101 380.452 523.743 380.948 524.986C 381.634 523.743 382.72 523.101 384.13 523.101C 386.341 523.101 387.693 524.565 387.693 526.37L 387.693 533.47L 385.883 533.47L 385.883 527.514C 385.883 526.129 385.692 524.565 383.577 524.565C 383.026 524.565 381.805 524.886 381.462 526.129C 381.215 527.052 381.272 528.055 381.272 528.296L 381.272 533.47L 379.462 533.47L 379.462 527.514C 379.462 525.769 379.08 524.565 377.347 524.565C 376.604 524.565 375.536 524.866 374.984 526.211C 374.774 526.732 374.851 528.055 374.851 528.296L 374.851 533.47L 373.04 533.47L 373.04 523.402L 374.812 523.402L 374.812 524.846z"
           id="path273" />
        <path
           style="stroke:none; fill:#6e6f70"
           d="M 395.315 527.254C 395.315 525.509 395.221 524.485 393.296 524.485C 392.38 524.485 391.523 525.046 391.504 526.09L 389.599 526.09C 389.694 523.883 391.332 523.101 393.22 523.101C 395.182 523.101 397.125 523.723 397.125 526.531L 397.125 531.346C 397.125 531.786 397.146 532.629 397.203 533.47L 395.981 533.47C 395.811 533.47 395.487 533.57 395.468 533.33C 395.429 532.87 395.392 532.427 395.372 531.966L 395.335 531.966C 394.743 533.23 393.675 533.772 392.363 533.772C 390.704 533.772 389.026 532.87 389.026 530.904C 389.026 528.075 391.408 527.254 393.675 527.254L 395.315 527.254zM 393.505 528.577C 392.4 528.636 390.933 529.058 390.933 530.522C 390.933 531.765 391.752 532.388 392.818 532.388C 394.953 532.388 395.353 530.443 395.315 528.577L 393.505 528.577z"
           id="path274" />
        <path
           style="stroke:none; fill:#6e6f70"
           d="M 400.765 524.886L 400.803 524.886C 401.413 523.622 402.746 523.101 403.699 523.101C 404.367 523.101 407.319 523.281 407.319 526.511L 407.319 533.47L 405.51 533.47L 405.51 527.132C 405.51 525.468 404.843 524.565 403.318 524.565C 403.318 524.565 402.327 524.505 401.565 525.308C 401.298 525.588 400.803 526.029 400.803 527.996L 400.803 533.47L 398.993 533.47L 398.993 523.402L 400.765 523.402L 400.765 524.886z"
           id="path275" />
        <path
           style="stroke:none; fill:#6e6f70"
           d="M 421.554 522.72C 421.459 521.335 420.05 520.413 418.639 520.413C 415.247 520.413 414.619 523.682 414.619 526.231C 414.619 529.219 415.476 532.047 418.466 532.047C 419.935 532.047 421.269 531.284 421.497 529.739L 423.498 529.739C 423.307 532.167 420.982 533.772 418.296 533.772C 414.236 533.772 412.619 530.282 412.619 526.231C 412.619 522.68 414.104 518.549 418.715 518.689C 421.364 518.769 423.346 520.133 423.554 522.72L 421.554 522.72z"
           id="path276" />
        <path
           style="stroke:none; fill:#6e6f70"
           d="M 433.52 528.437C 433.52 531.566 431.902 533.772 428.756 533.772C 425.613 533.772 423.993 531.566 423.993 528.437C 423.993 525.308 425.613 523.101 428.756 523.101C 431.902 523.101 433.52 525.308 433.52 528.437zM 428.756 532.388C 430.91 532.388 431.615 530.583 431.615 528.437C 431.615 526.29 430.91 524.485 428.756 524.485C 426.603 524.485 425.898 526.29 425.898 528.437C 425.898 530.583 426.603 532.388 428.756 532.388z"
           id="path277" />
        <path
           style="stroke:none; fill:#6e6f70"
           d="M 436.816 533.47L 435.006 533.47L 435.006 523.402L 436.816 523.402L 436.816 525.347L 436.855 525.347C 437.121 523.964 438.342 523.262 439.656 523.262C 439.885 523.262 440.076 523.281 440.285 523.281L 440.285 525.087C 440.037 524.986 439.751 524.986 439.504 524.986C 437.218 525.067 436.816 526.35 436.816 528.476L 436.816 533.47z"
           id="path278" />
        <path
           style="stroke:none; fill:#6e6f70"
           d="M 440.951 525.207C 440.933 524.605 440.895 524.003 440.857 523.402L 442.705 523.402L 442.762 525.006L 442.801 525.006C 443.353 523.562 444.554 523.101 446.06 523.101C 448.746 523.101 450.079 525.708 450.079 528.437C 450.079 531.024 448.935 533.772 445.486 533.772C 444.706 533.772 443.447 533.371 442.819 532.328L 442.762 532.328L 442.762 537.322L 440.951 537.322L 440.951 525.207zM 445.468 524.485C 443.41 524.485 442.762 526.61 442.762 528.437C 442.762 530.321 443.276 532.388 445.297 532.388C 447.508 532.388 448.175 530.321 448.175 528.437C 448.175 526.551 447.641 524.485 445.468 524.485z"
           id="path279" />
        <path
           style="stroke:none; fill:#6e6f70"
           d="M 451.164 533.47L 451.164 531.065L 453.377 531.065L 453.377 533.47L 451.164 533.47z"
           id="path280" />
      </g>
    </g>
  </g>
</svg>
